<svg width="110" height="42" viewBox="0 0 110 42" fill="none" xmlns="http://www.w3.org/2000/svg">
<g clip-path="url(#clip0_402_12)">
<path d="M27.2598 0.28C26.908 0.09604 26.5168 -2.83086e-05 26.1198 6.25725e-09C25.6917 0.00781364 25.2697 0.103099 24.8798 0.28C24.1733 0.637116 23.5365 1.11806 22.9998 1.7C21.1698 3.55 18.5298 3.62 16.6498 3.36C14.8476 3.13584 13.1185 2.51051 11.5898 1.53C9.76979 0.05 8.10979 -0.29 6.99979 0.6C6.10979 1.33 5.87979 2.6 6.31979 4.45C6.94295 6.66984 7.80464 8.81568 8.88979 10.85C9.66825 12.2937 10.2533 13.8336 10.6298 15.43C10.7142 15.7783 10.7142 16.1417 10.6298 16.49C10.4998 16.54 9.80979 16.72 7.62979 15.83C6.3337 15.2089 4.88051 14.9929 3.45979 15.21C2.8886 15.3162 2.34927 15.5516 1.88303 15.8983C1.41679 16.2449 1.03601 16.6936 0.769793 17.21C0.405077 17.953 0.223355 18.7725 0.239793 19.6C0.254373 20.0726 0.321451 20.5422 0.439793 21C0.688836 22.2605 1.40274 23.3814 2.43979 24.14C3.9855 25.1549 5.80092 25.6811 7.64979 25.65C8.91497 25.6422 10.172 25.4468 11.3798 25.07C14.3115 24.2006 16.9074 22.4561 18.8198 20.07C19.5698 19.07 20.1498 18.31 20.5698 17.85L20.7298 17.68C20.9698 17.88 21.2898 18.2 21.6698 18.59L22.1198 19.03C22.4439 19.4077 22.87 19.684 23.347 19.8259C23.8241 19.9678 24.3319 19.9692 24.8098 19.83C24.5463 21.2245 23.9656 22.5397 23.1124 23.6737C22.2593 24.8078 21.1566 25.7304 19.8898 26.37C18.2088 27.2209 16.3597 27.6874 14.4763 27.7358C12.5929 27.7843 10.7223 27.4134 8.99979 26.65C8.73602 26.5217 8.43974 26.4759 8.14955 26.5185C7.85936 26.561 7.58871 26.69 7.37287 26.8886C7.15702 27.0871 7.00599 27.3461 6.93944 27.6318C6.8729 27.9174 6.89393 28.2165 6.99979 28.49C7.06411 28.6709 7.16345 28.8373 7.29215 28.9797C7.42084 29.1221 7.57636 29.2377 7.74979 29.32C9.66219 30.1842 11.7315 30.647 13.8298 30.68V34.06H7.35979C6.96992 34.06 6.59602 34.2149 6.32035 34.4906C6.04467 34.7662 5.88979 35.1401 5.88979 35.53C5.88979 35.9199 6.04467 36.2938 6.32035 36.5694C6.59602 36.8451 6.96992 37 7.35979 37H23.3598C23.7497 37 24.1236 36.8451 24.3992 36.5694C24.6749 36.2938 24.8298 35.9199 24.8298 35.53C24.8298 35.1401 24.6749 34.7662 24.3992 34.4906C24.1236 34.2149 23.7497 34.06 23.3598 34.06H16.7998V30.46C18.3442 30.2101 19.8394 29.7173 21.2298 29C22.8447 28.1652 24.255 26.9837 25.3598 25.54C26.5548 23.9745 27.3511 22.1418 27.6798 20.2C28.5476 15.8473 29.0792 11.4343 29.2698 7C29.2698 6.81 29.2698 6.62 29.2698 6.43C29.2898 2.91 28.6498 1 27.2598 0.28ZM26.3598 6.92C26.3598 8.21 26.2398 9.75 26.0498 11.49C25.8342 12.4733 25.5671 13.4446 25.2498 14.4C25.013 15.2943 24.6092 16.1357 24.0598 16.88L23.7898 16.59L23.7298 16.53C22.5798 15.37 21.7298 14.53 20.5498 14.61C19.7932 14.7009 19.0996 15.0763 18.6098 15.66C17.8526 16.4912 17.1447 17.366 16.4898 18.28C14.9548 20.1824 12.8809 21.5766 10.5398 22.28C9.47717 22.6793 8.33899 22.8371 7.20782 22.742C6.07664 22.6468 4.98081 22.3012 3.99979 21.73C3.60946 21.3779 3.35473 20.9003 3.27979 20.38C3.11377 19.7921 3.14897 19.1656 3.37979 18.6C3.44765 18.4607 3.54889 18.3403 3.67451 18.2496C3.80012 18.1589 3.94622 18.1006 4.09979 18.08C4.23288 18.0686 4.3667 18.0686 4.49979 18.08C5.21576 18.1181 5.91809 18.2911 6.56979 18.59C7.45652 18.9789 8.3864 19.2609 9.33979 19.43C9.94126 19.5909 10.5741 19.5935 11.1769 19.4375C11.7796 19.2816 12.3318 18.9724 12.7798 18.54C13.1701 18.0405 13.4376 17.4563 13.5609 16.8345C13.6842 16.2127 13.6599 15.5707 13.4898 14.96C13.0817 13.0777 12.4083 11.2629 11.4898 9.57C10.5313 7.76014 9.76057 5.85688 9.18979 3.89C9.18979 3.68 9.10979 3.49 9.06979 3.34C9.29786 3.47554 9.51221 3.63295 9.70979 3.81C11.6417 5.14401 13.869 5.98826 16.1998 6.27C16.8626 6.36122 17.5308 6.40799 18.1998 6.41C19.3783 6.42233 20.5508 6.23988 21.6698 5.87C22.928 5.44348 24.0686 4.72762 24.9998 3.78C25.2968 3.47656 25.6332 3.21423 25.9998 3C26.3842 4.26876 26.5067 5.60244 26.3598 6.92Z" fill="white"/>
<path d="M27.0998 6.93998C27.0998 8.25998 26.9498 9.81999 26.7598 11.6C26.5495 12.6172 26.2723 13.6194 25.9298 14.6C25.0198 17.3 24.2898 17.65 24.1398 17.69C23.9898 17.73 23.9398 17.75 23.6298 17.44C23.4898 17.29 23.3498 17.14 23.2098 17.01C22.1298 15.91 21.4898 15.24 20.5998 15.3C19.7098 15.36 18.9798 16.18 17.4998 18.11C19.0398 15.11 20.5698 10.33 15.5798 9.60998C14.2137 9.49729 12.8949 9.05665 11.7355 8.32548C10.576 7.5943 9.61014 6.59417 8.91976 5.40998C8.73976 4.89998 8.59976 4.40999 8.48976 4.02999C8.14976 2.67999 8.35976 2.32998 8.37976 2.28998C8.39976 2.24998 9.16976 2.35998 10.1798 3.19998C12.005 4.45664 14.1025 5.26205 16.2998 5.54999C16.9227 5.63623 17.5509 5.67967 18.1798 5.67998C19.3435 5.72404 20.5041 5.53237 21.5919 5.1165C22.6797 4.70063 23.6722 4.06914 24.5098 3.25998C25.4398 2.31998 26.0398 2.11998 26.2498 2.25998C26.4598 2.39998 27.1698 2.91998 27.0998 6.93998Z" fill="#DD7210"/>
<path d="M45.1562 8.71094C43.6198 8.71094 42.2331 8.78255 40.9961 8.92578C39.7591 9.05599 38.6914 9.19922 37.793 9.35547C36.7513 9.55078 35.8203 9.76562 35 10L35.5664 6.83594C35.7227 6.84896 35.957 6.86198 36.2695 6.875C36.582 6.88802 36.9271 6.90104 37.3047 6.91406C37.6953 6.92708 38.099 6.9401 38.5156 6.95312C38.9453 6.95312 39.349 6.95964 39.7266 6.97266C40.1042 6.97266 40.4362 6.97917 40.7227 6.99219C41.0221 6.99219 41.237 6.99219 41.3672 6.99219H52.5195C52.6497 6.99219 52.8581 6.99219 53.1445 6.99219C53.444 6.97917 53.7826 6.97266 54.1602 6.97266C54.5378 6.95964 54.9349 6.95312 55.3516 6.95312C55.7812 6.9401 56.1849 6.92708 56.5625 6.91406C56.9531 6.90104 57.3047 6.88802 57.6172 6.875C57.9297 6.86198 58.1641 6.84896 58.3203 6.83594L58.8867 10C58.0534 9.76562 57.1159 9.55078 56.0742 9.35547C55.1758 9.19922 54.1081 9.05599 52.8711 8.92578C51.6341 8.78255 50.2474 8.71094 48.7109 8.71094V27.3633C48.7109 28.4701 48.724 29.4401 48.75 30.2734C48.7891 31.0938 48.8281 31.8034 48.8672 32.4023C48.9193 33.0013 48.9779 33.5026 49.043 33.9062C49.1211 34.3099 49.1992 34.6484 49.2773 34.9219V35H44.6094V34.9219C44.6875 34.6484 44.7591 34.3099 44.8242 33.9062C44.8893 33.5026 44.9479 33.0013 45 32.4023C45.0521 31.8034 45.0911 31.0938 45.1172 30.2734C45.1432 29.4401 45.1562 28.4701 45.1562 27.3633V8.71094ZM59.1016 22.6367C59.1016 21.5299 59.082 20.5664 59.043 19.7461C59.0169 18.9128 58.9779 18.1966 58.9258 17.5977C58.8867 16.9987 58.8281 16.4974 58.75 16.0938C58.6849 15.6901 58.6133 15.3516 58.5352 15.0781V15H63.0469V15.0781C62.9427 15.3776 62.8516 15.7422 62.7734 16.1719C62.7083 16.6016 62.6562 17.1549 62.6172 17.832C63.099 17.4284 63.6003 17.0312 64.1211 16.6406C64.6419 16.25 65.1758 15.9049 65.7227 15.6055C66.2695 15.306 66.8229 15.0651 67.3828 14.8828C67.9557 14.7005 68.5286 14.6094 69.1016 14.6094C69.4531 14.6094 69.7591 14.6289 70.0195 14.668C70.2799 14.694 70.5143 14.7396 70.7227 14.8047C70.931 14.8568 71.1198 14.9219 71.2891 15C71.4583 15.0651 71.6211 15.1302 71.7773 15.1953L70.8203 18.9258L70.4883 18.8477C70.332 18.2747 70.0391 17.819 69.6094 17.4805C69.1797 17.1289 68.5938 16.9531 67.8516 16.9531C67.4479 16.9531 67.0247 17.0247 66.582 17.168C66.1393 17.3112 65.6901 17.513 65.2344 17.7734C64.7786 18.0208 64.3229 18.3138 63.8672 18.6523C63.4115 18.9779 62.9688 19.3229 62.5391 19.6875C62.513 20.0651 62.5 20.4753 62.5 20.918C62.5 21.3607 62.5 21.8294 62.5 22.3242V27.3633C62.5 28.4701 62.513 29.4401 62.5391 30.2734C62.5651 31.0938 62.6042 31.8034 62.6562 32.4023C62.7083 33.0013 62.7669 33.5026 62.832 33.9062C62.8971 34.3099 62.9688 34.6484 63.0469 34.9219V35H58.5352V34.9219C58.6133 34.6484 58.6849 34.3099 58.75 33.9062C58.8281 33.5026 58.8867 33.0013 58.9258 32.4023C58.9779 31.8034 59.0169 31.0938 59.043 30.2734C59.082 29.4401 59.1016 28.4701 59.1016 27.3633V22.6367ZM72.4219 29.2383C72.4219 28.2096 72.6302 27.3177 73.0469 26.5625C73.4766 25.8073 74.043 25.1628 74.7461 24.6289C75.4492 24.0951 76.25 23.6654 77.1484 23.3398C78.0469 23.0013 78.9779 22.7409 79.9414 22.5586C80.9049 22.3633 81.8555 22.2331 82.793 22.168C83.7305 22.0898 84.5898 22.0443 85.3711 22.0312V21.0352C85.3711 20.1758 85.2604 19.4336 85.0391 18.8086C84.8177 18.1836 84.5052 17.6693 84.1016 17.2656C83.6979 16.849 83.2096 16.543 82.6367 16.3477C82.0768 16.1393 81.4583 16.0352 80.7812 16.0352C80.3125 16.0352 79.8503 16.0742 79.3945 16.1523C78.9388 16.2305 78.4635 16.3607 77.9688 16.543C77.487 16.7253 76.9727 16.9727 76.4258 17.2852C75.8919 17.5977 75.3125 17.9948 74.6875 18.4766L74.4922 18.3594L75.8203 15.6055C76.25 15.4102 76.6732 15.2539 77.0898 15.1367C77.5065 15.0065 77.9297 14.9023 78.3594 14.8242C78.7891 14.7461 79.2253 14.694 79.668 14.668C80.1237 14.6289 80.599 14.6094 81.0938 14.6094C82.4609 14.6094 83.6263 14.7786 84.5898 15.1172C85.5664 15.4427 86.3607 15.8984 86.9727 16.4844C87.5977 17.0573 88.0534 17.7344 88.3398 18.5156C88.6263 19.2839 88.7695 20.1107 88.7695 20.9961V27.3633C88.7695 28.4701 88.7826 29.4401 88.8086 30.2734C88.8477 31.0938 88.8867 31.8034 88.9258 32.4023C88.9779 33.0013 89.0365 33.5026 89.1016 33.9062C89.1797 34.3099 89.2578 34.6484 89.3359 34.9219V35H85.0195V34.9219C85.0846 34.7135 85.1302 34.4792 85.1562 34.2188C85.1953 33.9583 85.2279 33.6458 85.2539 33.2812C84.9805 33.5156 84.6549 33.7565 84.2773 34.0039C83.9128 34.2513 83.4896 34.4792 83.0078 34.6875C82.5391 34.8828 82.0117 35.0391 81.4258 35.1562C80.8529 35.2865 80.2214 35.3516 79.5312 35.3516C77.2656 35.3516 75.5143 34.8242 74.2773 33.7695C73.0404 32.7018 72.4219 31.1914 72.4219 29.2383ZM85.3711 23.5547C84.1862 23.5677 83.0469 23.6393 81.9531 23.7695C80.8594 23.8867 79.8893 24.1406 79.043 24.5312C78.2096 24.9219 77.5391 25.4818 77.0312 26.2109C76.5365 26.9271 76.2891 27.8841 76.2891 29.082C76.2891 30.6185 76.6732 31.7904 77.4414 32.5977C78.2096 33.4049 79.2708 33.8086 80.625 33.8086C81.25 33.8086 81.8164 33.724 82.3242 33.5547C82.8451 33.3724 83.3008 33.151 83.6914 32.8906C84.0951 32.6172 84.4336 32.3242 84.707 32.0117C84.9805 31.6862 85.1888 31.3737 85.332 31.0742C85.3581 30.5794 85.3711 30.0326 85.3711 29.4336C85.3711 28.8216 85.3711 28.1315 85.3711 27.3633V23.5547ZM96.6797 33.4766H102.48C103.496 33.4766 104.434 33.4245 105.293 33.3203C106.152 33.2031 106.895 33.0729 107.52 32.9297C108.249 32.7734 108.913 32.5846 109.512 32.3633L108.633 35.1562C108.477 35.1432 108.203 35.1237 107.812 35.0977C107.435 35.0846 107.031 35.0651 106.602 35.0391C106.185 35.026 105.788 35.013 105.41 35C105.033 35 104.779 35 104.648 35H91.9922V34.5117L104.609 16.5234H100.527C99.4466 16.5234 98.4505 16.582 97.5391 16.6992C96.6406 16.8164 95.8594 16.9466 95.1953 17.0898C94.4141 17.2461 93.7109 17.4284 93.0859 17.6367L94.3555 14.8438C94.5117 14.8698 94.7786 14.8893 95.1562 14.9023C95.5469 14.9154 95.957 14.9349 96.3867 14.9609C96.8164 14.974 97.2135 14.987 97.5781 15C97.9557 15 98.2161 15 98.3594 15H109.355V15.3516L96.6797 33.4766Z" fill="white"/>
</g>
<defs>
<clipPath id="clip0_402_12">
<rect width="110" height="42" fill="white"/>
</clipPath>
</defs>
</svg>
