<svg xmlns="http://www.w3.org/2000/svg" fill="white" viewBox="0 0 200 50" style="
"><path d="M81.48,8.43a.87.87,0,0,0,0-1.43c-2.42-1.68-6.53,3.38-8,6.25v4.31c0,1.62.16,3,2.14,3v.69H67.13v-.69c2,0,2.21-1.35,2.21-3V15c0-.24,0-.45,0-.67C69.24,13,68.81,12,67.13,12v-.73a9.6,9.6,0,0,0,5.68-2h0a.79.79,0,0,1,.68.78v1.75A29,29,0,0,1,75.7,8.41C77.59,6,79.32,4.15,82.06,4.15h.27c.2,0,.39,0,.6,0A3.09,3.09,0,0,1,84.49,5,2.29,2.29,0,0,1,81.48,8.43Z"></path><path d="M129,25.63c-.18,1.94-2.61,2.78-4.34,2.78a6.19,6.19,0,0,1-6.22-5.22,16,16,0,0,1-.29-2.54v-6c0-1.54-.41-2.92-2.17-2.92-1.36,0-2,1.08-2.15,2.53,0,.26,0,.41,0,.57v4s0,.07,0,.09a.81.81,0,0,0,0,.16v.09l0,.21a.19.19,0,0,0,0,.08.66.66,0,0,0,0,.14s0,.07,0,.11h0A2.8,2.8,0,0,0,114,20h0l.06.13,0,.07h0a.41.41,0,0,0,.07.11h0a.21.21,0,0,1,0,.06h0a.65.65,0,0,0,.13.16h0s0,0,0,0a2,2,0,0,0,1.28.35v.7h-8.2v-.7h.19l.3,0a1.32,1.32,0,0,0,.3-.07l.14,0,0,0a1.26,1.26,0,0,0,.26-.13l.09,0,.15-.12.08-.07h0a1.24,1.24,0,0,0,.14-.18l0,0s0-.08.08-.11,0,0,0,0l0,0c0-.07.06-.12.09-.18a.56.56,0,0,1,0-.12s0-.07,0-.12l.06-.24a1.84,1.84,0,0,0,0-.25v0a2,2,0,0,0,0-.26c0-.09,0-.19,0-.29s0-.39,0-.6V15.3c0-.23,0-.45,0-.67a3.53,3.53,0,0,0-.23-1.17.29.29,0,0,0,0-.1s0-.09-.07-.14a.25.25,0,0,0,0-.07l0,0s0,0,0-.06h0l0,0,0,0s0,0,0,0l0,0h0l0-.05,0,0-.06-.05,0,0-.07-.05a0,0,0,0,0,0,0h0l-.08-.05h0l-.08,0h0a.31.31,0,0,0-.1,0h0l-.11,0h0l-.13,0h0l-.11,0h0l-.13,0-.16,0h-.36v-.73a9.49,9.49,0,0,0,5.66-2,.79.79,0,0,1,.68.79v1.23a4.64,4.64,0,0,1,4-2c1.9,0,3.4.73,4,2.46a7.76,7.76,0,0,1,.39,2.76v9.44c.09,1.17.51,3.11,2.37,3.35a1.27,1.27,0,0,0,1.43-1.16,1.12,1.12,0,0,0-1.15-1.32,1.81,1.81,0,0,1,1.88-1.7A2,2,0,0,1,129,25.63Z"></path><path d="M117.31,43.6c-.18,1.95-2.6,2.78-4.34,2.78a6.18,6.18,0,0,1-6.21-5.22,14.76,14.76,0,0,1-.29-2.53V32.57c0-1.54-.41-2.92-2.18-2.92-1.36,0-2,1.09-2.14,2.53,0,.26,0,.42,0,.57v4.1a.76.76,0,0,0,0,.15s0,.06,0,.09a1.8,1.8,0,0,0,0,.22s0,0,0,.08l0,.13s0,.07,0,.11h0a2.63,2.63,0,0,0,.09.3h0a.84.84,0,0,0,.06.14l0,.06h0l.08.12h0a.09.09,0,0,0,0,.06h0l.13.15h0l.06,0a1.92,1.92,0,0,0,1.27.36v.7H95.82v-.7H96a1.53,1.53,0,0,0,.3,0,2.84,2.84,0,0,0,.31-.06l.12,0,0,0a1.39,1.39,0,0,0,.28-.12l.07-.05a.57.57,0,0,0,.15-.12.16.16,0,0,0,.09-.07.93.93,0,0,0,.16-.18l0,0a.37.37,0,0,0,.07-.12l0,0,0,0,.08-.18a.43.43,0,0,0,.05-.12.76.76,0,0,1,0-.11c0-.09,0-.17.06-.25a1.84,1.84,0,0,0,0-.25s0,0,0,0,0-.17,0-.26a2.64,2.64,0,0,0,0-.28,6,6,0,0,0,0-.61V33.28c0-.23,0-.46,0-.67a4.13,4.13,0,0,0-.22-1.18.42.42,0,0,1,0-.1l-.07-.14a.43.43,0,0,1,0-.07v0l0-.08h0l0,0a.08.08,0,0,0,0,0l0,0,0,0,0,0,0-.05,0-.05,0,0a.08.08,0,0,0-.06,0l0,0h0l-.07-.05h0L97,30.52h0l-.09,0h0l-.12-.05a.7.7,0,0,0-.12,0h0l-.12,0s0,0,0,0l-.14,0h-.16l-.16,0h-.18v-.73a9.41,9.41,0,0,0,5.64-2h0a.81.81,0,0,1,.68.79v1.23a4.65,4.65,0,0,1,4-2,3.9,3.9,0,0,1,4,2.45,7.79,7.79,0,0,1,.38,2.76v2.67c0,.57,0,1.11,0,1.71v5.06c.08,1.17.51,3.11,2.36,3.36.77,0,1.39-.37,1.43-1.16a1.11,1.11,0,0,0-1.15-1.32,1.83,1.83,0,0,1,1.9-1.71A1.94,1.94,0,0,1,117.31,43.6Z"></path><path d="M128.08,40.28V41h-7.63v-.71c.86,0,1.21-.7.57-1.42l-3.61-4.19v2.58c0,1.66.26,3,2.24,3V41H111v-.71c2,0,2.24-1.37,2.24-3V27c0-1.82-.59-2.84-2.23-1.66-2.17,1.31-4.58,2.38-6.83.92a3,3,0,0,1-1.05-1.46,2,2,0,0,1,1.71-2.67l.36,0h.1A1.77,1.77,0,0,1,107,23.47a.89.89,0,0,0-.66,1.3c1.09,1.93,4.63-.38,7.46-1.8,2.36-1.19,3.59.09,3.58,1.64v9.68l4.08-2.89c1-.66.88-1.63-.34-1.63v-.71h5.3v.71c-1.37,0-3,1.31-4.13,2.13L121,33l4.44,5.61C126.37,39.65,127,40.23,128.08,40.28Z"></path><path d="M113.1,7.79A.89.89,0,0,0,113,6.34c-1.37-1-4,.09-5.82,4.27l-2,4.9-2.66,6.61h-1.76L97.83,14.6l-3,7.52H93.06l-4.12-9.46c-.49-1.13-.82-1.7-2.09-1.7v-.71h7.52V11c-1.16,0-1.56.41-1.05,1.7L95.51,18l1.88-4.61-.31-.76c-.46-1.1-.7-1.7-2-1.7v-.71h7.55V11c-1.16,0-1.68.39-1.24,1.7L103.19,18l1.31-3.22,1.79-4.38c1.38-3.18,2.94-5.56,4.91-6.56a5.47,5.47,0,0,1,2.4-.57,3,3,0,0,1,2.05.72C117.34,5.29,116.18,9.05,113.1,7.79Z"></path><path d="M156,22.81a2.86,2.86,0,0,0-1.93-.69,5,5,0,0,0-2.25.54c-1.85.95-3.32,3.21-4.62,6.23l-1.1,2.74L145,34.47a2.33,2.33,0,0,0-.79-1.15,2.51,2.51,0,0,0-1.08-.46l-.82-1.81c-.48-1.21-.19-1.61.87-1.61v-.67h-7.06v.67a1.92,1.92,0,0,1,1.93,1.22l1.47,3c-2.57,1.28-3.79,4-6.42,4.3-2.23.27-4.64-.88-4.71-3.06l7.43-.1c0-.1,0-.19.05-.28.43-2.8-1.41-4.62-4.44-5.08a7.31,7.31,0,0,0-1.22-.09c-3,0-5.5,1.7-5.73,4.94-.2,2.74,1.79,5.28,5.33,5.81,3.69.35,4.78-1.78,7.13-3.85a5.72,5.72,0,0,1,3.09-1.56l2.77,5.61c-.8,2-1.72,2.79-2.78,2.91a2.07,2.07,0,0,1-2.16-1.09,2.49,2.49,0,0,0-1.26,3,2.19,2.19,0,0,0,2.13,1.27c2.62,0,4-3.73,5-6.34l2.68-6.85L148,29.11c1.74-4,4.19-5.05,5.47-4.05a.86.86,0,0,1,.13,1.38C156.53,27.64,157.62,24.06,156,22.81ZM130.3,30.14h.14c1.65.1,2.13,1.6,1.94,3.75l-3.93.05C128.23,31.84,128.89,30.17,130.3,30.14Z"></path><path d="M62.23,11.54c2.13-.66,3.46-1.9,3.46-3.85,0-3.13-3-4.44-8.61-4.44h-7.7V4c2,0,2.46,1.33,2.46,2.95v8.4c-2.55-2.55-8.29-2.75-8.9,2.08a3.37,3.37,0,0,0,3.27,3.82c3.3.1,3.71-3.87.92-3.89A1.29,1.29,0,0,1,44.61,17a2.44,2.44,0,0,1,2.74-2.46h.2c2.44.09,3.89,1.81,5.68,3.43a10.42,10.42,0,0,0,7.24,3.18,8.89,8.89,0,0,0,4.83-1.44,4.2,4.2,0,0,0,1.83-3.5C67.13,13.72,65.38,12.21,62.23,11.54ZM56.29,4.27h1.42c2.72,0,3.55,1.62,3.55,3.42,0,2.11-1.17,3.44-3.87,3.44h-1.1Zm0,14.11V12.13h1.62c3.07,0,4.49,1.69,4.49,4C62.25,19.16,59,19.88,56.29,18.38Z"></path><path d="M56.94,21.22H49.38v-.69c2,0,2.46-1.34,2.46-3v-.12c.37.33.73.68,1.09,1A12.26,12.26,0,0,0,56.94,21.22Z"></path><path d="M72.68,23.92H65.1v.71c1.86,0,2.3,1.34,2.3,3V36a5.91,5.91,0,0,0-4.19-1.77,4,4,0,0,0-4.14,3.86,3.32,3.32,0,0,0,3.07,3.82C65.23,42,65.6,38,63,38a1.2,1.2,0,0,1-2.36-.37,2.35,2.35,0,0,1,2.57-2.46h.17c2.3.09,3.65,1.8,5.32,3.43,2.35,2.39,5.38,3.72,8.54,2.66a8.2,8.2,0,0,0,6-8.35C83.26,27.59,79.69,23.92,72.68,23.92Zm2.95,16.36c-1.12.49-2.67,0-4.08-.84V24.94h1c4.07,0,6.35,2.36,6.35,8C78.93,36.88,77.77,39.25,75.63,40.28Z"></path><path d="M72.18,41.89H65.1V41.2c1.89,0,2.3-1.34,2.3-3v-.12l1,1A11.23,11.23,0,0,0,72.18,41.89Z"></path><path d="M88.65,16.73a6.28,6.28,0,1,1-12.56,0A6,6,0,0,1,82,10.44c-2.69,1-2.88,3.38-2.85,6.29,0,3.41,1.26,5.64,3.2,5.64s3.22-2.23,3.22-5.64c0-2.62-.75-4.53-2-5.29a1.41,1.41,0,0,0-2,.42,2.2,2.2,0,0,0-.38,1.24.94.94,0,0,0,1.87.19c1.92,0,1.63,3-.63,2.94a2.47,2.47,0,0,1-2.24-2.87,3,3,0,0,1,1.62-2.5,4.24,4.24,0,0,1,3.9.46h0A6.14,6.14,0,0,1,88.65,16.73Z"></path><path d="M96.71,33.8a6.28,6.28,0,1,1-12.55,0,6,6,0,0,1,5.92-6.29c-2.69,1-2.89,3.39-2.85,6.29,0,3.42,1.25,5.64,3.2,5.64s3.21-2.22,3.21-5.64c0-2.61-.74-4.53-2-5.28a1.39,1.39,0,0,0-2,.42,2.09,2.09,0,0,0-.38,1.23.94.94,0,0,0,1.87.2c1.91,0,1.63,3-.63,2.94a2.48,2.48,0,0,1-2.24-2.88,3,3,0,0,1,1.62-2.5,4.24,4.24,0,0,1,3.88.46A6.17,6.17,0,0,1,96.71,33.8Z"></path></svg>