<svg xmlns="http://www.w3.org/2000/svg" fill="white" viewBox="0 0 200 50"><path d="M84.9,45.79a3.24,3.24,0,0,1-1.4-.26,1.53,1.53,0,0,1-.76-.89,5.5,5.5,0,0,1-.21-1.71V31q0-3.76-2.08-5.3c-1.37-1-3.45-1.52-6.22-1.52a19,19,0,0,0-4.06.4,6.87,6.87,0,0,0-3,1.29A3,3,0,0,0,66.11,28a2.17,2.17,0,0,0,1.33,2.29,9.8,9.8,0,0,0,4,.63,15.09,15.09,0,0,1,.56-5,2.09,2.09,0,0,1,2.13-1.37,2.13,2.13,0,0,1,1.42.42,2.55,2.55,0,0,1,.75,1.4,13,13,0,0,1,.24,2.76v5.11l-3.24.11a13.9,13.9,0,0,0-6.64,1.53,4.85,4.85,0,0,0-2.21,4.46,5.85,5.85,0,0,0,6.32,6.27,7,7,0,0,0,2.39-.4,4.67,4.67,0,0,0,2-1.37,6.87,6.87,0,0,0,1.39-2.69h.08a4,4,0,0,0,4,4.06h4.45v-.4Zm-8.37-6.47a10,10,0,0,1-.45,3,5.87,5.87,0,0,1-1.31,2.29,2.67,2.67,0,0,1-2,.89A1.66,1.66,0,0,1,71.53,45a3.34,3.34,0,0,1-.73-1.67,16,16,0,0,1-.23-3.09,7.13,7.13,0,0,1,.9-4.11,4,4,0,0,1,3.28-1.4l1.78-.08Z"></path><path d="M162.14,42.17a3.24,3.24,0,0,1-.82,2,6.16,6.16,0,0,1-2.59,1.71,12.57,12.57,0,0,1-4.53.68A12.27,12.27,0,0,1,149,45.53a7.55,7.55,0,0,1-3.52-3.5,14.44,14.44,0,0,1-1.24-6.53,14.87,14.87,0,0,1,1.29-6.81,7.52,7.52,0,0,1,3.55-3.52,12.36,12.36,0,0,1,5.19-1,14.1,14.1,0,0,1,4.17.53,6.11,6.11,0,0,1,2.64,1.53,3.14,3.14,0,0,1,.51,3.8A3.07,3.07,0,0,1,160,31.26a8.22,8.22,0,0,1-3.21.5,30.61,30.61,0,0,0-.23-4.34,4.2,4.2,0,0,0-.86-2.23,2.27,2.27,0,0,0-1.71-.66,2.6,2.6,0,0,0-2.13,1,7.25,7.25,0,0,0-1.14,3.38,48.18,48.18,0,0,0-.34,6.55,31.27,31.27,0,0,0,.5,6.21,6.47,6.47,0,0,0,1.61,3.41,3.94,3.94,0,0,0,2.86,1.07,5.51,5.51,0,0,0,2.53-.58,4.85,4.85,0,0,0,1.89-1.92,9.21,9.21,0,0,0,1-3.53,1.84,1.84,0,0,1,1,.76A2.34,2.34,0,0,1,162.14,42.17Z"></path><path d="M117.32,33.81q0-4.79-2.55-7.23a9.7,9.7,0,0,0-7-2.45A9.7,9.7,0,0,0,100.27,27c-1.78,1.91-2.66,4.76-2.66,8.54,0,3.48.91,6.2,2.74,8.14s4.51,2.91,8.06,2.91a12.44,12.44,0,0,0,4.47-.68,6.48,6.48,0,0,0,2.68-1.75,3.37,3.37,0,0,0,.9-2.19,2.22,2.22,0,0,0-.34-1.21,1.72,1.72,0,0,0-1.17-.68,8.73,8.73,0,0,1-1,3.54,5.05,5.05,0,0,1-2,1.93,5.66,5.66,0,0,1-2.6.6A4.38,4.38,0,0,1,106.22,45a7,7,0,0,1-1.76-3.66,31.48,31.48,0,0,1-.55-6.57h13.41Zm-13.41.56a35.61,35.61,0,0,1,.43-5.81,6.25,6.25,0,0,1,1.24-3.09,2.8,2.8,0,0,1,2.17-.94,2.42,2.42,0,0,1,2,.94,6.46,6.46,0,0,1,1,3.09,46.36,46.36,0,0,1,.29,5.81Z"></path><path d="M145.11,46.19v.4h-3.33a6,6,0,0,1-5.94-6.06V27.88a2.31,2.31,0,0,0-.48-1.61,2.19,2.19,0,0,0-1.12-.68,4.92,4.92,0,0,0-1.21-.16h-.47V25h3.25a6.09,6.09,0,0,1,6,6.15v12.4a2.58,2.58,0,0,0,.46,1.69,2.08,2.08,0,0,0,1.12.75,4.8,4.8,0,0,0,1.22.18Z"></path><path d="M140.63,17.83a2.45,2.45,0,0,1-.8,2,2.9,2.9,0,0,1-1.91.66,2.83,2.83,0,0,1-1.89-.66,2.46,2.46,0,0,1-.78-2,2.48,2.48,0,0,1,.78-2,2.87,2.87,0,0,1,1.89-.64,2.94,2.94,0,0,1,1.91.64A2.5,2.5,0,0,1,140.63,17.83Z"></path><path d="M126.61,24.76v5.31c0,.13,0,.25,0,.37V42.71a2.62,2.62,0,0,0,.45,1.67,2.09,2.09,0,0,0,1.13.74,5.22,5.22,0,0,0,1.22.18h.48v.39h-3.34a6,6,0,0,1-6-6V27.19c0-.09,0-.18,0-.26a2,2,0,0,0-.46-1.33,2.15,2.15,0,0,0-1.13-.68,5.45,5.45,0,0,0-1.21-.16h-.47v-.4h.31A12.85,12.85,0,0,0,121,24a6.71,6.71,0,0,0,2.53-1.27,6.52,6.52,0,0,0,1.64-2,6,6,0,0,0,.36-.77,11.3,11.3,0,0,0,.65-2.08h.4v6.53h5.06v.4Z"></path><path d="M59.23,33.34Q56.7,31.49,52,31.4v-.08a15.54,15.54,0,0,0,4.69-.88,6.15,6.15,0,0,0,2.9-2.09,5.73,5.73,0,0,0,1-3.43,5.88,5.88,0,0,0-2.84-5.27c-1.91-1.21-4.75-1.82-8.54-1.82H37.55v.41h1.64a2.52,2.52,0,0,1,1,.2,1.5,1.5,0,0,1,.75.74,3.69,3.69,0,0,1,.28,1.64V40.14a6.42,6.42,0,0,0,6.38,6.45h2.74c3.77,0,6.61-.65,8.51-2a6.52,6.52,0,0,0,2.87-5.76A6.32,6.32,0,0,0,59.23,33.34ZM47.54,18.24H49a4.43,4.43,0,0,1,3.79,1.49q1.11,1.48,1.11,5a12.36,12.36,0,0,1-.48,3.79,3.67,3.67,0,0,1-1.53,2.11,5.15,5.15,0,0,1-2.81.66H47.54ZM54,44.52a4.21,4.21,0,0,1-3.78,1.67H47.54V31.73h2.71a4.79,4.79,0,0,1,2.8.73,4.06,4.06,0,0,1,1.54,2.29,15.13,15.13,0,0,1,.48,4.18Q55.07,42.85,54,44.52Z"></path><path d="M122.51,10.67a9.5,9.5,0,0,0-.37-1.18c-.13-.31-.29-.62-.44-.92a10.23,10.23,0,0,0-6.35-4.69,12,12,0,0,0-2-.35c-2.87-.29-6,.29-9.78,1.77-1.07.46-2.14.93-3.19,1.42-1.57.73-3.1,1.51-4.61,2.34-.68.39-1.37.78-2,1.18l-1.73,1c-1.11.64-2.24,1.28-3.37,1.9L86.92,14a23,23,0,0,0-10.3-3.83c-1.64-.22-7.29-.72-11.13,2a4.55,4.55,0,0,0-1.92,3.13,3.49,3.49,0,0,0,.95,2.83A6.18,6.18,0,0,0,68.77,20c4.52.26,9-1.05,13.17-2.85.78-.37,1.61-.74,2.4-1.14a22.43,22.43,0,0,1,3.8,8.09,31.66,31.66,0,0,1,.79,6.86v9.57A6.08,6.08,0,0,0,95,46.59h3.37v-.4h-.48A5.3,5.3,0,0,1,96.64,46a2.17,2.17,0,0,1-1.15-.75,2.63,2.63,0,0,1-.46-1.7V33.38c-.11-10.2-3.93-15.25-6-17.46-.25-.26-.48-.48-.68-.67s-.69-.55-1-.8l.3-.17,1-.53c1.2-.69,2.35-1.38,3.54-2,.54-.31,1.11-.64,1.66-.93.72-.43,1.46-.86,2.19-1.26,1.57-.87,3.16-1.67,4.78-2.43.95-.44,1.92-.85,2.89-1.25a20.3,20.3,0,0,1,9.54-1.76c.44.05.87.12,1.31.2a11.61,11.61,0,0,1,2,.63,9.29,9.29,0,0,1,4.65,3.94,6.86,6.86,0,0,1,.79,2.4,5.88,5.88,0,0,1,.09,1v.7a3.29,3.29,0,0,1-.07.58c0,.19,0,.25-.07.39s0,.17-.07.26,0,.19-.07.28-.07.19-.1.28a1.55,1.55,0,0,1-.08.23V15a6.06,6.06,0,0,1-.55,1,4.85,4.85,0,0,1-.48.6A8.23,8.23,0,0,1,119,18a6.52,6.52,0,0,1-7.14.16,3.36,3.36,0,0,1-1.48-3.43,4.63,4.63,0,0,1,1-1.67,25.54,25.54,0,0,1,2.44-2.65,7.24,7.24,0,0,0-2.42-1.89,3.39,3.39,0,0,0-3,0,3.7,3.7,0,0,0-1.43,4.06,11.45,11.45,0,0,0,3.25,5.06,1,1,0,0,0,.16.14,0,0,0,0,0,0,0l.39.37c.06.05.1.11.17.16l.21.18.1.07h0A7,7,0,0,0,115,19.69h.28a7.3,7.3,0,0,0,3.19-.69,7.71,7.71,0,0,0,.89-.49,9.69,9.69,0,0,0,1.13-.9l0-.05.49-.45c.09-.1.17-.2.27-.3a4.92,4.92,0,0,0,.37-.56,7,7,0,0,0,1-3.16v-.71A8.15,8.15,0,0,0,122.51,10.67ZM81.79,16.59h0c-4.09,1.78-8.51,3.07-13,2.81a5.76,5.76,0,0,1-3.9-1.57,3.06,3.06,0,0,1-.83-2.42,4,4,0,0,1,1.71-2.74c2.34-1.68,5.78-2.19,8.73-2.07a6,6,0,0,1,1.12.08,14,14,0,0,1,8.41,4.87Z"></path></svg>