<svg xmlns="http://www.w3.org/2000/svg" fill="white" viewBox="0 0 200 50"><path d="M84.87,35.48h-.61l-1.49,2.7h.6l.31-.56h1.78l.3.56h.6Zm-1,1.73.68-1.27.67,1.27Z"></path><polygon points="95.33 37.76 95.33 38.18 93.53 38.18 93.53 35.48 93.96 35.48 93.96 37.76 95.33 37.76"></polygon><path d="M105,35.93a1,1,0,0,0-.41-.33,1.52,1.52,0,0,0-.62-.12H102.5v2.7H103v-.82h1a1.37,1.37,0,0,0,.62-.12.9.9,0,0,0,.41-.33.85.85,0,0,0,.14-.48A.92.92,0,0,0,105,35.93Zm-.57.88A.84.84,0,0,1,104,37H103V35.9H104a.77.77,0,0,1,.49.14.49.49,0,0,1,.17.39A.49.49,0,0,1,104.47,36.81Z"></path><polygon points="115.04 35.48 115.04 38.18 114.52 38.18 114.52 37.02 112.88 37.02 112.88 38.18 112.36 38.18 112.36 35.48 112.88 35.48 112.88 36.6 114.52 36.6 114.52 35.48 115.04 35.48"></polygon><path d="M123.42,35.48h-.61l-1.5,2.7h.61l.29-.56H124l.3.56h.6Zm-1,1.73.67-1.27.69,1.27Z"></path><path d="M134.61,37a.62.62,0,0,0-.35-.25.76.76,0,0,0,.29-.24.64.64,0,0,0,.11-.36.59.59,0,0,0-.28-.52,1.44,1.44,0,0,0-.77-.19h-1.54v2.7h1.54a1.47,1.47,0,0,0,.85-.2.61.61,0,0,0,.3-.55A.58.58,0,0,0,134.61,37Zm-2-1.15h1A.57.57,0,0,1,134,36a.3.3,0,0,1,.14.26.33.33,0,0,1-.14.27.73.73,0,0,1-.36.09h-1Zm1.48,1.78a.73.73,0,0,1-.42.1H132.6V37h1.07a.71.71,0,0,1,.41.11.35.35,0,0,1,.15.28A.38.38,0,0,1,134.08,37.67Z"></path><polygon points="144.62 37.77 144.62 38.18 141.93 38.18 141.93 35.48 144.59 35.48 144.59 35.89 142.53 35.89 142.53 36.62 144.5 36.62 144.5 37.01 142.53 37.01 142.53 37.77 144.62 37.77"></polygon><polygon points="152.69 35.48 152.69 35.9 151.62 35.9 151.62 38.18 151.07 38.18 151.07 35.9 150 35.9 150 35.48 152.69 35.48"></polygon><path d="M127.7,31.46V21.55a5.66,5.66,0,0,0-.81-3,2.82,2.82,0,0,0-2.61-1.33,5.23,5.23,0,0,0-1.46.22,4.75,4.75,0,0,0-1.42.67,4.15,4.15,0,0,0-1.09,1.08,2.45,2.45,0,0,0-.44,1.46v10.8a2.16,2.16,0,0,0,.15.81.86.86,0,0,0,.66.52h-4.29a.77.77,0,0,0,.66-.52,2.45,2.45,0,0,0,.15-.81V21.29c0-1.14,0-2.38-.06-3.71s-.15-2.66-.32-4A21,21,0,0,0,116,9.8a11.44,11.44,0,0,0-1.62-3.24,7.7,7.7,0,0,0-2.61-2.25,8,8,0,0,0-3.88-.86,7.75,7.75,0,0,0-2.95.57,8.14,8.14,0,0,0-2.49,1.59A7.76,7.76,0,0,0,100.71,8a6.87,6.87,0,0,0-.66,3,6.12,6.12,0,0,0,1.71,4.48,5.85,5.85,0,0,0,4.38,1.75,3.93,3.93,0,0,0,1.08-.16,4.36,4.36,0,0,1,1.15-.16h0a15.75,15.75,0,0,1,1.72.09,7,7,0,0,1,1.8.41,3.9,3.9,0,0,1,1.43.95,2.36,2.36,0,0,1,.59,1.66,1.32,1.32,0,0,1-.53,1.1,1.9,1.9,0,0,1-1.21.42A1.56,1.56,0,0,1,111,21.1a1,1,0,0,0,.52-.57,1.85,1.85,0,0,0,.16-.76,2.06,2.06,0,0,0-1-2,4.83,4.83,0,0,0-2.28-.54,3.12,3.12,0,0,0-2,.7,2.38,2.38,0,0,0-.88,2,2.52,2.52,0,0,0,.72,1.81A7,7,0,0,0,107.94,23c.7.36,1.46.71,2.27,1.06a17.18,17.18,0,0,1,2.27,1.14,6.56,6.56,0,0,1,1.77,1.52,3.42,3.42,0,0,1,.71,2.22,3.12,3.12,0,0,1-.47,1.75,4,4,0,0,1-1.2,1.21,5.49,5.49,0,0,1-1.65.69,6.67,6.67,0,0,1-1.71.23,7.59,7.59,0,0,1-2.54-.45,7.7,7.7,0,0,0-2.56-.44c-.49,0-.8.29-.92.89V28.21a3.58,3.58,0,0,0,.74,1.82,5.56,5.56,0,0,0,1.52,1.33,7.43,7.43,0,0,0,1.9.82,6.75,6.75,0,0,0,1.86.29,3.15,3.15,0,0,0,2-.7,2.39,2.39,0,0,0,.87-2,2.35,2.35,0,0,0-.71-1.81,7.07,7.07,0,0,0-1.77-1.17,22.39,22.39,0,0,0-2.27-.93,11.44,11.44,0,0,1-2.27-1,6.13,6.13,0,0,1-1.77-1.59,4,4,0,0,1-.72-2.48,3.15,3.15,0,0,1,.72-2,4.59,4.59,0,0,1,1.71-1.33,5.94,5.94,0,0,1-4.32-2,6.65,6.65,0,0,1-1.65-4.57,7,7,0,0,1,.72-3.21,7.84,7.84,0,0,1,1.9-2.44,8.17,8.17,0,0,1,2.73-1.56,9.56,9.56,0,0,1,3.17-.54A10,10,0,0,1,114,4.6a10.21,10.21,0,0,1,3.45,3.81,17.51,17.51,0,0,1,1.74,5.26,48.22,48.22,0,0,1,.62,5.84,4.05,4.05,0,0,1,2-2,6.29,6.29,0,0,1,2.73-.61,9,9,0,0,1,2.11.26,6.3,6.3,0,0,1,1.9.79,4,4,0,0,1,1.33,1.43,4.37,4.37,0,0,1,.49,2.16c0,.46,0,1.29-.09,2.48s-.09,2.4-.09,3.68a25,25,0,0,0,.22,3.42c.14,1,.4,1.58.77,1.66h-4.28a.76.76,0,0,0,.65-.52A2.47,2.47,0,0,0,127.7,31.46Z"></path><path d="M79.38,37.46a6,6,0,0,0-1.8-1.85,7.84,7.84,0,0,0-2.46-1.06,11.34,11.34,0,0,0-2.67-.33,14.5,14.5,0,0,0-4.37.66A41.53,41.53,0,0,0,64,36.4c-.73-2-1.39-3.95-2-6s-1.11-4-1.61-6.07-1-4.05-1.49-6.09-1-4.08-1.58-6.11a20.8,20.8,0,0,0-.93-2.53,7.22,7.22,0,0,0-1.31-2A5.9,5.9,0,0,0,53.2,6.3a6.74,6.74,0,0,0-2.62-.47A3.07,3.07,0,0,0,49,6.3a3.32,3.32,0,0,0-1.15,1.24,3.43,3.43,0,0,1,1-1.08A2.47,2.47,0,0,1,50.29,6a3.59,3.59,0,0,1,2.13.66A6.21,6.21,0,0,1,54,8.33a8.89,8.89,0,0,1,1,2.18,14.49,14.49,0,0,1,.53,2.2L54,19.08a11.12,11.12,0,0,0-2.74-1.64,8.06,8.06,0,0,0-3.09-.58,6.57,6.57,0,0,0-2.49.48,6.82,6.82,0,0,0-2.08,1.32,6.48,6.48,0,0,0-1.46,2,5.67,5.67,0,0,0-.56,2.51,6,6,0,0,0,.41,2.2A5.68,5.68,0,0,0,43,27.13,5.3,5.3,0,0,0,47,28.81h0a3.57,3.57,0,0,0,1.71-.44,4.43,4.43,0,0,0,1.38-1.14,5.38,5.38,0,0,0,.9-1.59,5,5,0,0,0,.33-1.74,4.19,4.19,0,0,0-.38-1.63,2.2,2.2,0,0,0-.34-.56,1.24,1.24,0,0,1,.17.27,2.91,2.91,0,0,1,.3,1.25,4.2,4.2,0,0,1-1.34,3.19,4.43,4.43,0,0,1-3.19,1.27A5,5,0,0,1,43,26.48,4.42,4.42,0,0,1,41.69,23a4.91,4.91,0,0,1,1.94-4,6.45,6.45,0,0,1,2-1,7.86,7.86,0,0,1,2.29-.35,9.68,9.68,0,0,1,5.88,1.92c-.06.31-.17.81-.32,1.52s-.34,1.51-.56,2.4-.44,1.84-.68,2.82-.47,1.87-.72,2.67a15.29,15.29,0,0,1-.76,2c-.25.54-.49.83-.73.86h1.91a.79.79,0,0,1-.45-.13.4.4,0,0,1-.2-.37,8.22,8.22,0,0,1,.17-1c.12-.56.28-1.22.48-2s.42-1.61.66-2.51.44-1.74.65-2.55.38-1.53.55-2.15l.35-1.29A14.32,14.32,0,0,1,55.34,21c.41.44.82.91,1.23,1.42a13.54,13.54,0,0,1,1,1.54,11.16,11.16,0,0,1,.71,1.44A11.08,11.08,0,0,1,58.72,27a12.79,12.79,0,0,0,.41,1.7c.37,1.44.77,2.88,1.2,4.29s1,2.84,1.51,4.25q-3.42,1.47-6.94,2.69a22.27,22.27,0,0,1-7.33,1.21A10.22,10.22,0,0,1,40.73,39a11.94,11.94,0,0,1-3.62-6.27,5,5,0,0,0,0,.65V34q0,4.2,2.43,6.07A10.16,10.16,0,0,0,45.86,42a25.37,25.37,0,0,0,8.26-1.36c2.67-.91,5.3-1.93,7.88-3a26.83,26.83,0,0,0,1.55,3.14,13.77,13.77,0,0,0,2.11,2.81,10.22,10.22,0,0,0,2.72,2,7.41,7.41,0,0,0,3.41.76,11.36,11.36,0,0,0,2.82-.38,9.59,9.59,0,0,0,2.66-1.14,7.11,7.11,0,0,0,2-1.92,5.22,5.22,0,0,0,.09-5.37ZM56.44,21.72a12.34,12.34,0,0,0-2.19-2.38l1.51-5.87q.66,2.73,1.18,5.51t1.18,5.52A22.8,22.8,0,0,0,56.44,21.72ZM79.16,42.55a6.22,6.22,0,0,1-1.71,1.79,8.12,8.12,0,0,1-2.32,1.09,8.81,8.81,0,0,1-2.49.38,5.51,5.51,0,0,1-3.11-.91,10.11,10.11,0,0,1-2.39-2.28,17.44,17.44,0,0,1-1.8-3c-.52-1.07-1-2.07-1.29-3,1.31-.54,2.66-1,4-1.49a13.45,13.45,0,0,1,4.25-.68,12.46,12.46,0,0,1,2.59.29,7.78,7.78,0,0,1,2.4,1,5.86,5.86,0,0,1,1.79,1.75,5,5,0,0,1,0,5Z"></path><path d="M148.08,30.52a9.71,9.71,0,0,1-.52-2.08,21,21,0,0,1-.2-2.32c0-.76,0-1.27,0-1.54,0-1.27,0-2.5.1-3.69a9.06,9.06,0,0,0-.31-3.1,3.86,3.86,0,0,0-1.7-2.16,7.75,7.75,0,0,0-4-.82,9.59,9.59,0,0,0-4,.79,5.39,5.39,0,0,0-2.73,3,1.66,1.66,0,0,0,.51,1.29,1.82,1.82,0,0,0,1.33.49,3.32,3.32,0,0,0,.65-.07,5.39,5.39,0,0,0,.65-.21,2.73,2.73,0,0,1-.28-1.29,3.3,3.3,0,0,1,1.17-2.6,3.91,3.91,0,0,1,2.66-1A2.51,2.51,0,0,1,144,16.59a8.28,8.28,0,0,1,.58,3.14,2.85,2.85,0,0,1-1.43,1.54,8.25,8.25,0,0,1-2.16.62c-.8.1-1.61.19-2.46.27a8,8,0,0,0-2.28.51A3.9,3.9,0,0,0,134.55,24a4.47,4.47,0,0,0-.68,2.69,4.46,4.46,0,0,0,1.77,3.93,7.09,7.09,0,0,0,4.24,1.27,4.38,4.38,0,0,0,2.73-.89,10.76,10.76,0,0,0,2-2.05,4,4,0,0,0,1.06,2,2.65,2.65,0,0,0,2,.93,1.82,1.82,0,0,0,1.36-.48C148.64,31.41,148.3,31.12,148.08,30.52Zm-5.5.14a4.65,4.65,0,0,1-2.7.82,2.58,2.58,0,0,1-1.57-.45,2.91,2.91,0,0,1-1-1.15,5.06,5.06,0,0,1-.44-1.58,11.31,11.31,0,0,1-.1-1.61,3.66,3.66,0,0,1,1-3,6.13,6.13,0,0,1,2.36-1.23l2.63-.76a2.52,2.52,0,0,0,1.77-1.6v8.54h0A8.09,8.09,0,0,1,142.58,30.66Z"></path><path d="M95.27,31.35V18h-.84a8,8,0,0,0,2.11-.65,2.75,2.75,0,0,0,1.53-1.61V31.35a2.35,2.35,0,0,0,.16.89.91.91,0,0,0,.68.55H94.43a.91.91,0,0,0,.68-.55A2.35,2.35,0,0,0,95.27,31.35Z"></path><path d="M98.07,12a1.49,1.49,0,0,1-.46,1.12,1.54,1.54,0,0,1-1.11.45,1.5,1.5,0,0,1-1.1-.45A1.48,1.48,0,0,1,95,12c0-1.14.54-1.71,1.63-1.71a1.3,1.3,0,0,1,1.09.51A1.93,1.93,0,0,1,98.07,12Z"></path><path d="M88.82,31.35V20.7a6,6,0,0,0-.88-3.21,3.11,3.11,0,0,0-2.87-1.44,5.11,5.11,0,0,0-3.5,1.24,4.29,4.29,0,0,0-1.4,3.41V31.35a2.18,2.18,0,0,0,.18.89.92.92,0,0,0,.71.55h-4.7a.8.8,0,0,0,.71-.55,2.52,2.52,0,0,0,.18-.89V20.7a6,6,0,0,0-.89-3.21,3.1,3.1,0,0,0-2.86-1.44,5.89,5.89,0,0,0-1.6.25,5.19,5.19,0,0,0-1.57.71,4.42,4.42,0,0,0-1.19,1.17,2.6,2.6,0,0,0-.48,1.56V31.35a2.35,2.35,0,0,0,.17.89,1,1,0,0,0,.72.55h-4.7a.8.8,0,0,0,.71-.55,2.49,2.49,0,0,0,.17-.89V18h-.88a8.6,8.6,0,0,0,2.21-.65,2.79,2.79,0,0,0,1.6-1.61v2.81a4.13,4.13,0,0,1,2.11-2.16,7.23,7.23,0,0,1,3-.65,9.58,9.58,0,0,1,3.71.78A4.25,4.25,0,0,1,80,19.26,4.29,4.29,0,0,1,82,16.57a6.7,6.7,0,0,1,3.31-.86,10.12,10.12,0,0,1,2.31.27,6.91,6.91,0,0,1,2.08.86,4.2,4.2,0,0,1,1.46,1.53,4.57,4.57,0,0,1,.55,2.33V31.35a2.17,2.17,0,0,0,.17.89,1,1,0,0,0,.72.55h-4.7a.8.8,0,0,0,.71-.55A2.49,2.49,0,0,0,88.82,31.35Z"></path><path d="M162.54,18.37a1.45,1.45,0,0,1-.55,1.2,2.09,2.09,0,0,1-1.3.45,1.63,1.63,0,0,1-1.25-.48A.92.92,0,0,0,160,19a2.5,2.5,0,0,0,.16-.86,2.08,2.08,0,0,0-.53-1.5,1.89,1.89,0,0,0-1.45-.55,3.47,3.47,0,0,0-2.46,1.13,3.51,3.51,0,0,0-1.12,2.5V31.35a2.17,2.17,0,0,0,.17.89.92.92,0,0,0,.69.55H150.9a.92.92,0,0,0,.69-.55,2.35,2.35,0,0,0,.16-.89V18h-.85a8.34,8.34,0,0,0,2.15-.65,2.73,2.73,0,0,0,1.55-1.61v2.81a4.1,4.1,0,0,1,1.69-2.09,4.7,4.7,0,0,1,2.48-.72,6.16,6.16,0,0,1,2.52.55A2.07,2.07,0,0,1,162.54,18.37Z"></path></svg>