<svg xmlns="http://www.w3.org/2000/svg" fill="white" viewBox="0 0 200 50"><path d="M64.11,6.73a4.18,4.18,0,0,1-.89,1.85c-.22.29-.56.69-1,1.19s-1,1-1.55,1.57L58.91,13a20.54,20.54,0,0,1-1.62,1.42,14.09,14.09,0,0,1-1.19.93,1.05,1.05,0,0,1-.71.2.74.74,0,0,1-.47-.2c-.08-.1-.05-.27.07-.51a6.65,6.65,0,0,1,.74-1c.36-.42.86-1,1.52-1.71,1.47-1.56,2.6-2.82,3.38-3.76s1.15-1.45,1.08-1.51-.21,0-.54,0-.74.15-1.25.27-1.06.25-1.66.41-1.21.34-1.79.54c-1,.36-2.21.82-3.48,1.37s-2.53,1.13-3.76,1.73S46.89,12.4,45.85,13a22.16,22.16,0,0,0-2.42,1.59A7.77,7.77,0,0,0,42,16.08c-.21.34-.19.6.07.8a21.08,21.08,0,0,0,2.5,1q2.12.75,5.29,1.73a54.59,54.59,0,0,1,5.79,2.24,13.23,13.23,0,0,1,3.43,2.25,7.62,7.62,0,0,1,1.86,2.37,5.91,5.91,0,0,1,.44,2.66,9.46,9.46,0,0,1-.85,3.57A13.44,13.44,0,0,1,58.18,36a29.12,29.12,0,0,1-9.9,6.54,51.31,51.31,0,0,1-10,3.28,19.26,19.26,0,0,1-7.74.25,11.53,11.53,0,0,1-2.48-.84,8.34,8.34,0,0,1-2-1.17,3.86,3.86,0,0,1-1.26-2.56,5.79,5.79,0,0,1,.68-3.2,15.17,15.17,0,0,1,2.06-3,22,22,0,0,1,2.89-2.81A30.49,30.49,0,0,1,34,30.06a26.31,26.31,0,0,1,4-1.89,18,18,0,0,1,1.79-.64c.73-.22,1.5-.46,2.32-.68s1.62-.43,2.41-.59,1.43-.29,2-.39a9.36,9.36,0,0,1,3.41-.05c.89.19,1.37.55,1.44,1.07,0,.24,0,.35-.08.37a1.06,1.06,0,0,1-.41-.07,8,8,0,0,0-4,.14,30.07,30.07,0,0,0-5.18,1.78A35.45,35.45,0,0,0,36.37,32a21.45,21.45,0,0,0-4.17,3.48,17,17,0,0,0-1.76,2.33,10.8,10.8,0,0,0-1.08,2.24A5.56,5.56,0,0,0,29.07,42a2,2,0,0,0,.54,1.37c.29.36,1,.46,2.14.32a26.15,26.15,0,0,0,4-.93,47.15,47.15,0,0,0,5-1.83,51,51,0,0,0,5-2.44c1.32-.78,2.54-1.59,3.68-2.42a38,38,0,0,0,3.12-2.52A24.59,24.59,0,0,0,54.9,31a12.67,12.67,0,0,0,1.61-2.45A6.51,6.51,0,0,0,57.06,27a2.14,2.14,0,0,0,0-1.08,4.24,4.24,0,0,0-1.45-.78c-.87-.35-2-.76-3.4-1.21q-3.24-1.08-5.3-1.84c-1.37-.5-2.5-1-3.38-1.36a14.51,14.51,0,0,1-2.18-1.22,14.3,14.3,0,0,1-1.64-1.4c-.4-.39-.71-.73-1-1a7.32,7.32,0,0,1-.59-.81,2.72,2.72,0,0,1-.31-.73,2.82,2.82,0,0,1-.1-.86q-.11-1.85,2.57-4.07A33.93,33.93,0,0,1,48,6.13,29.27,29.27,0,0,1,59.6,3.26a8.09,8.09,0,0,1,1.69,0,6.32,6.32,0,0,1,1.05.34A3.48,3.48,0,0,1,63.76,5a2.18,2.18,0,0,1,.44.81A2.56,2.56,0,0,1,64.11,6.73Z"></path><path d="M175.31,21.33a.52.52,0,0,0-.55-.37c-.06,0-.14.07-.24.22s-.22.39-.4.75-.4.85-.65,1.49-.57,1.45-1,2.41c-.58,1.45-1.2,2.9-1.89,4.36s-1.34,2.76-2,3.88a25.18,25.18,0,0,1-1.6,2.67c-.46.67-.74.9-.84.7a4.72,4.72,0,0,1,.21-1.17c.18-.73.43-1.62.72-2.68s.64-2.2,1-3.42.73-2.36,1.12-3.42c.23-.61.39-1.11.5-1.48a8.42,8.42,0,0,0,.22-.86,2.13,2.13,0,0,0,0-.46,1.41,1.41,0,0,1,0-.28,2.51,2.51,0,0,0-1.18-1.41,4.18,4.18,0,0,0-2.23-.57h-1.24l1-2.41a13.67,13.67,0,0,0,.73-2.15c.15-.65.27-1.21.33-1.66a6.34,6.34,0,0,0,0-1.23,2.49,2.49,0,0,0-.38-.89,3.55,3.55,0,0,0-.7-.7,8.34,8.34,0,0,0-1-.65,8.74,8.74,0,0,0-1.1-.48,2.89,2.89,0,0,0-.94-.19,2,2,0,0,0-1.65,1.16,10.35,10.35,0,0,0-1.22,3.32,8.83,8.83,0,0,0,0,5.06,4.87,4.87,0,0,0,.61,1.12c0,.07-.07.13-.1.21-.19.41-.5,1.12-.9,2.16a39.27,39.27,0,0,1-2.31,5Q156.43,31.81,155,34a10.93,10.93,0,0,1-3.61,3.5c-.27.1-.46,0-.61-.44a6,6,0,0,1-.26-1.63,20.35,20.35,0,0,1,.07-2.4A23.28,23.28,0,0,1,151,30.2l.35-1.75,1.08.1a2.65,2.65,0,0,0,2.14-.44A7.54,7.54,0,0,0,157,25a14.79,14.79,0,0,0,1.24-4.82,11.22,11.22,0,0,0,.19-1.72,2.12,2.12,0,0,0-.19-.95,2.39,2.39,0,0,0-.57-.95,5.09,5.09,0,0,0-1-.82,6.57,6.57,0,0,0-1.21-.62,3.52,3.52,0,0,0-1.22-.24h-.3a1.49,1.49,0,0,0-.36.05,3.71,3.71,0,0,0-1.47,1A14.38,14.38,0,0,0,150.4,18,24.92,24.92,0,0,0,148.73,21a30.22,30.22,0,0,0-1.42,3.46q-.41,1.13-.69,2.1c-.31.71-.66,1.55-1.06,2.52C143.5,33.87,142,36.86,141,38l-.56.75.13-.89c0-.2.06-.5.1-.92s.06-.8.1-1.16.12-.93.25-1.7.33-1.68.55-2.7.48-2.1.76-3.26.57-2.28.86-3.36.54-2.1.81-3,.46-1.69.66-2.25c.09-.26.47-.46,1.13-.59,1.33-.2,2-.46,2-.79a.88.88,0,0,0-.41-.77,1.77,1.77,0,0,0-1-.27c-.58,0-.86-.08-.86-.25A11.29,11.29,0,0,1,146,15c.31-1,.76-2.28,1.32-3.84.2-.59.41-1.17.67-1.75a1.91,1.91,0,0,0-.15-1.8,4.46,4.46,0,0,0-.8-1.14,8.35,8.35,0,0,0-1-.91,3,3,0,0,0-1.05-.5,1,1,0,0,0-.8.07,4.63,4.63,0,0,0-.62,1.17c-.32.71-.67,1.55-1,2.52s-.78,2-1.17,3.06-.72,2-1,2.8L139.63,17l-1.52.15a5.83,5.83,0,0,0-1.4.27c-.15.08-.24.29-.26.62a1.6,1.6,0,0,0,0,.62,1.68,1.68,0,0,0,.14.56.69.69,0,0,0,.38.43,2.8,2.8,0,0,0,.81,0,3,3,0,0,1,.66,0c.19,0,.28,0,.28.07a9.91,9.91,0,0,1-.26,1.11c-.17.68-.35,1.46-.54,2.35-.45,1.54-.79,2.87-1,4a1,1,0,0,0,0,.17,0,0,0,0,0,0,0c-.25.64-.53,1.29-.81,2-.41.95-.81,1.9-1.22,2.84s-.77,1.76-1.11,2.47-.62,1.26-.86,1.65-.33.54-.33.44,0-.2.07-.51.12-.74.22-1.26.21-1.12.31-1.78.26-1.36.42-2.07c.38-1.88.69-3.36.9-4.43s.36-1.89.44-2.47A9.67,9.67,0,0,0,135,23a1.76,1.76,0,0,0-.1-.66c-.16-.73-.81-1.29-2-1.68a1.23,1.23,0,0,0-1.31,0,3.3,3.3,0,0,0-.88,1.61c-.17.39-.36.86-.58,1.41a7.71,7.71,0,0,1-.73,1.36c-1.33,2.43-2.4,4.37-3.21,5.8s-1.38,2.41-1.72,2.91-.47.61-.39.28a20.15,20.15,0,0,1,.75-2.07,44.18,44.18,0,0,1,2-4.48c.71-1.43,1.4-2.7,2.08-3.83a25.69,25.69,0,0,1,1.9-2.74,3,3,0,0,1,1.45-1.16c.81-.17,1.1-.54.86-1.11a4.67,4.67,0,0,0-2-1.85,4.45,4.45,0,0,0-2.26-.92,3.33,3.33,0,0,0-2.07.82,10.91,10.91,0,0,0-2.25,2.42,24.68,24.68,0,0,0-2.31,4.05c-.51,1.08-1,2.14-1.37,3.2a0,0,0,0,0,0,0,3.91,3.91,0,0,1-1.36,1.29c-.26.16-.41.19-.44.07a2.29,2.29,0,0,1,.2-.95c.09-.4.21-1,.36-1.76s.28-1.6.39-2.47.22-1.68.3-2.47.12-1.38.12-1.8,0-.85,0-1.25a4.7,4.7,0,0,0-.1-.81,2,2,0,0,0-.81-.9,2.19,2.19,0,0,0-1.19-.37,1.9,1.9,0,0,0-1.42.61,6.07,6.07,0,0,0-1.14,2,17,17,0,0,0-.88,3.18,20.86,20.86,0,0,0-.24,3.32,12.32,12.32,0,0,0,.29,3,4.6,4.6,0,0,0,1.13,2l.68.72-.38,1.18c-.27.68-.58,1.39-.94,2.12s-.71,1.4-1.05,2-.66,1.06-.93,1.43-.49.55-.61.52-.26-.43-.27-1.1a22.22,22.22,0,0,1,.12-2.61c.1-1.08.24-2.3.44-3.64s.42-2.74.68-4.14c.14-.64.27-1.21.4-1.68a1.24,1.24,0,0,0-.4-1.29,3.6,3.6,0,0,0-2-1.08,2,2,0,0,0-1.86.34,1.85,1.85,0,0,0-.37.67c-.14.36-.29.81-.46,1.34s-.33,1.09-.49,1.7-.3,1.22-.39,1.76c-.17.69-.42,1.58-.76,2.66s-.71,2.15-1.1,3.16-.77,1.88-1.13,2.61-.61,1.1-.74,1.1-.09-.15-.09-.46,0-.72.07-1.22.11-1.1.2-1.76.18-1.36.31-2.08A12.05,12.05,0,0,1,105.1,30c.13-.52.27-1.1.42-1.73s.31-1.3.49-2,.35-1.36.51-2c.42-1.5.74-2.66,1-3.46s.35-1.44.43-1.86a2,2,0,0,0,0-.86,2.1,2.1,0,0,0-.35-.47,7.29,7.29,0,0,0-1.1-1.12,4.44,4.44,0,0,0-1.2-.7,2.65,2.65,0,0,0-1.08-.2,1.07,1.07,0,0,0-.78.36,5.23,5.23,0,0,0-.64,1.3c-.26.67-.54,1.43-.84,2.3s-.56,1.78-.83,2.74c0,.17-.09.34-.13.5a3.11,3.11,0,0,0-.52.81c-.23.43-.52,1.08-.9,1.93s-.87,2-1.47,3.46C96,33.87,94.48,36.86,93.5,38l-.57.75.14-.89c0-.2.06-.5.1-.92s.06-.8.09-1.16.12-.93.26-1.7.32-1.68.55-2.7.47-2.1.76-3.26.57-2.28.85-3.36.55-2.1.8-3,.48-1.69.67-2.25c.1-.26.48-.46,1.14-.59,1.33-.2,2-.46,2-.79a.87.87,0,0,0-.4-.77,1.8,1.8,0,0,0-1-.27c-.57,0-.86-.08-.86-.25A11.29,11.29,0,0,1,98.48,15c.31-1,.76-2.28,1.33-3.84.19-.59.41-1.17.66-1.75a1.91,1.91,0,0,0-.14-1.8,4.27,4.27,0,0,0-.81-1.14,7.13,7.13,0,0,0-1-.91,2.92,2.92,0,0,0-1-.5,1.06,1.06,0,0,0-.81.07A5.21,5.21,0,0,0,96,6.32c-.33.71-.67,1.55-1,2.52s-.77,2-1.16,3.06-.72,2-1,2.8L92.13,17l-1.52.15a6.1,6.1,0,0,0-1.41.27c-.14.08-.23.29-.26.62a2.12,2.12,0,0,0,0,.62,1.66,1.66,0,0,0,.15.56.64.64,0,0,0,.38.43,2.71,2.71,0,0,0,.8,0,3.1,3.1,0,0,1,.67,0c.19,0,.28,0,.28.07A9.91,9.91,0,0,1,91,20.85c-.17.68-.35,1.46-.55,2.35-.08.3-.17.59-.24.87a0,0,0,0,0,0,0c-.24.47-.5,1-.78,1.7-.42,1-.93,2.18-1.51,3.59-1,2.35-1.84,4.26-2.55,5.73a17.06,17.06,0,0,1-1.77,3l-.63.68.15-.82c0-.24.06-.54.1-.94s.06-.76.09-1.12h0a41,41,0,0,1,.79-4.36c.42-1.93.93-4,1.54-6.32s1.25-4.61,2-7,1.39-4.46,2-6.3c.23-.59.46-1.16.71-1.74a1.92,1.92,0,0,0-.12-1.74,4.93,4.93,0,0,0-.81-1.13,6.91,6.91,0,0,0-1-.9,3.15,3.15,0,0,0-1-.5.91.91,0,0,0-.81.13,3.34,3.34,0,0,0-.58,1c-.26.59-.57,1.34-.91,2.26s-.72,2-1.12,3.13-.82,2.4-1.24,3.68-.8,2.56-1.19,3.84-.74,2.51-1,3.66-.58,2.36-.79,3.29c-.3.76-.63,1.54-1,2.35s-.8,1.9-1.21,2.84-.77,1.76-1.11,2.47-.63,1.26-.86,1.65-.34.54-.34.44,0-.2.07-.51.13-.74.23-1.26.2-1.12.31-1.78.25-1.36.42-2.07c.38-1.88.68-3.36.89-4.43s.36-1.89.44-2.47A10.2,10.2,0,0,0,77.61,23a2,2,0,0,0-.1-.66q-.24-1.09-2-1.68a1.23,1.23,0,0,0-1.31,0,3.29,3.29,0,0,0-.89,1.61l-.58,1.41A6.59,6.59,0,0,1,72,25c-1.33,2.43-2.39,4.37-3.2,5.8S67.43,33.2,67.1,33.7s-.48.61-.4.28a18.7,18.7,0,0,1,.76-2.07,46.5,46.5,0,0,1,1.94-4.48c.72-1.43,1.41-2.7,2.09-3.83a23.06,23.06,0,0,1,1.9-2.74,2.91,2.91,0,0,1,1.45-1.16c.81-.17,1.09-.54.85-1.11a4.69,4.69,0,0,0-2-1.85,4.48,4.48,0,0,0-2.26-.92,3.31,3.31,0,0,0-2.07.82,11.17,11.17,0,0,0-2.26,2.42,25.46,25.46,0,0,0-2.3,4.05A37.86,37.86,0,0,0,63,27.49a32,32,0,0,0-1.1,4A18.73,18.73,0,0,0,61.54,35,6.62,6.62,0,0,0,62,37.53a4,4,0,0,0,1.68,2,2.78,2.78,0,0,0,2.15.41,3.19,3.19,0,0,0,1.34-1.18A22,22,0,0,0,69,35.36c.36-.76.68-1.4.95-2l.46-.91c.07-.07.1.08.12.44a8.21,8.21,0,0,1-.07,1.33h0a10.18,10.18,0,0,0,.41,4,4.61,4.61,0,0,0,1.92,2.34c1.52.89,3,0,4.27-2.67a36.29,36.29,0,0,0,1.5-3.39c0,.3,0,.61,0,.92,0,.72,0,1.32,0,1.79s0,.87.06,1.18a3.51,3.51,0,0,0,.11.8c.08.24.16.46.25.7a4.11,4.11,0,0,0,2.45,2.49,2.52,2.52,0,0,0,.84.3,1,1,0,0,0,.63-.12,2.36,2.36,0,0,0,.61-.59q.31-.42.81-1.2c.45-.76,1-1.65,1.47-2.67s1-2.13,1.59-3.31c.37-.81.74-1.64,1.11-2.5,0,.09,0,.17,0,.25,0,.8-.07,1.68-.07,2.63,0,.75,0,1.37,0,1.85s0,.88,0,1.21a3.76,3.76,0,0,0,.12.84c.06.23.15.48.24.74a4.36,4.36,0,0,0,2.56,2.57,2.48,2.48,0,0,0,.83.3,1.11,1.11,0,0,0,.67-.12,2.6,2.6,0,0,0,.64-.62c.22-.3.5-.71.85-1.24.48-.79,1-1.7,1.52-2.74s1.08-2.16,1.63-3.36,1.12-2.46,1.67-3.75l.21-.53c-.1.78-.17,1.51-.21,2.2a11.15,11.15,0,0,0,.49,4.83,5.83,5.83,0,0,0,.71,1.38,3.41,3.41,0,0,0,1,.88h0a2.64,2.64,0,0,0,.78.27,5,5,0,0,0,1.08.12,5.74,5.74,0,0,0,.63,0,1.8,1.8,0,0,0,.47-.12,1.42,1.42,0,0,0,.42-.3c.12-.12.3-.32.53-.58a7.57,7.57,0,0,0,.76-1.29c.28-.58.53-1.14.76-1.69l.69-1.81.39,1.12a6.8,6.8,0,0,0,1.45,2.92,4.54,4.54,0,0,0,2.47,1.24,2.65,2.65,0,0,0,1.37-.15,3.11,3.11,0,0,0,1.18-.95,9.29,9.29,0,0,0,1.18-2c.39-.85.84-1.94,1.36-3.28.27-.68.48-1.23.64-1.65a6.75,6.75,0,0,1,.43-1,1.17,1.17,0,0,1,.31-.42.6.6,0,0,1,.3-.1,2,2,0,0,0,1.06-.37c-.17.63-.32,1.25-.43,1.84A18,18,0,0,0,118.9,35a6.62,6.62,0,0,0,.43,2.56,4,4,0,0,0,1.68,2,2.81,2.81,0,0,0,2.16.41,3.24,3.24,0,0,0,1.33-1.18,21.16,21.16,0,0,0,1.87-3.36c.36-.76.68-1.4,1-2s.42-.85.45-.91.11.08.13.44a9.55,9.55,0,0,1-.07,1.33h0a10,10,0,0,0,.41,4,4.52,4.52,0,0,0,1.92,2.34c1.51.89,2.94,0,4.27-2.67.45-.88.95-2,1.49-3.38v.66c0,.75,0,1.37,0,1.85s0,.88.05,1.21a4.52,4.52,0,0,0,.11.84c.07.23.15.48.24.74a4.35,4.35,0,0,0,2.57,2.57,2.44,2.44,0,0,0,.82.3,1.11,1.11,0,0,0,.67-.12,2.3,2.3,0,0,0,.64-.62c.22-.3.51-.71.85-1.24.48-.79,1-1.7,1.52-2.74s1.09-2.16,1.64-3.36c.25-.54.5-1.08.74-1.64.15,3.42,1.41,5.68,3.79,6.74a3.42,3.42,0,0,0,3.14-.2,9.24,9.24,0,0,0,3.19-3.16,38.12,38.12,0,0,0,2.9-5.13,45.8,45.8,0,0,0,2.43-6.36,21,21,0,0,0,.58-2.12,8.14,8.14,0,0,0,1.72,1.23l.86.34-.38,1.1q-.87,2.37-1.41,4.17c-.37,1.2-.67,2.26-.89,3.18a21.68,21.68,0,0,0-.48,2.41,13,13,0,0,0-.14,1.86h0a5,5,0,0,0,.45,2.24,4.84,4.84,0,0,0,1.37,1.8,2.75,2.75,0,0,0,1.61.72A2.35,2.35,0,0,0,166,41.5a12.23,12.23,0,0,0,3-4.13,92.14,92.14,0,0,0,4.11-8.89c.57-1.44,1-2.65,1.38-3.61a18.07,18.07,0,0,0,.72-2.32A2.53,2.53,0,0,0,175.31,21.33Zm-23,4.49c.12-.32.27-.71.43-1.17.29-.68.59-1.33.93-2s.66-1.21,1-1.71.59-.91.82-1.21.44-.47.6-.47h.09c.1,0,.08.23,0,.68s-.32,1-.55,1.57-.49,1.16-.76,1.74a9.81,9.81,0,0,1-.74,1.36,11.56,11.56,0,0,1-1.3,1.47c-.43.39-.65.48-.65.29A2.57,2.57,0,0,1,152.3,25.82Zm-33.43-7.47c0,.26,0,.68-.1,1.26a17,17,0,0,1-.3,1.86,16.14,16.14,0,0,1-.31,2c-.14.66-.25,1.11-.32,1.37l-.29,1-.06-1.65a17.14,17.14,0,0,1,.27-3,15.29,15.29,0,0,1,.71-2.67l.4-.92Zm45.47.93c-.14.23-.21.24-.21.07a5.07,5.07,0,0,1,.23-1.06c.16-.53.39-1.18.67-1.95a9,9,0,0,1,.46-1.27c.14-.31.23-.46.26-.46s.15.34,0,1a16.52,16.52,0,0,1-.73,2.19A10.41,10.41,0,0,1,164.34,19.28Z"></path></svg>