<svg xmlns="http://www.w3.org/2000/svg" fill="white" viewBox="0 0 200 50"><path d="M98.57,46.07l-.12.18c-4.87-4.22-10.89-6-17.54-6-12.41,0-24.54,6.1-36.9,6.1-7.91,0-13.63-2.51-18.26-12L12.4,6.75v27.6c0,1.26.85,1.35,1.44,1.39V36h-4v-.23c.54,0,1.39-.13,1.39-1.39v-29c0-1.26-.67-1.8-1.39-1.89V3.25h4L27.33,31.08,40.77,3.25H45v.22c-.54,0-1.39.14-1.39,1.39V34.35c0,1.26.85,1.35,1.39,1.39V36H39.38v-.23c.58,0,1.39-.13,1.39-1.39V5.94L28,32.43c4.54,9.23,8.64,12.78,17.13,12.78,11.28,0,23.28-6.1,35.6-6.1C87.83,39.11,93.9,41.18,98.57,46.07Z"></path><path d="M66.69,35.66c-1,0-1-.89-1-2.7V23.65c0-5.17-2.91-7.82-8-7.82-4.23,0-6.83,1.81-9.56,4.68l2.37,1.15A6.83,6.83,0,0,1,57.18,17c3,0,5.51,1.68,5.69,4.9-5.38.18-15.39,1.54-15.39,8.52,0,4.29,3.79,6.1,7.43,6.1a9.22,9.22,0,0,0,8-4.11c-.18,2.87.68,4.11,2.32,4.11a5.84,5.84,0,0,0,2.91-1v-.27A4.43,4.43,0,0,1,66.69,35.66Zm-3.82-6c0,3.14-3.46,5.4-6.83,5.4-2.82,0-5.82-1.64-5.82-5.35,0-6,8-6.67,12.65-6.71Z"></path><path d="M104.85,35.82v.23h-7v-.23c.53,0,1.7-.49.89-1.35l-7.1-7.91-2.06,2.29v5.58c0,1.26.85,1.35,1.44,1.39v.23H85.41v-.23c.53,0,1.38-.13,1.38-1.39V6.17L84.46,7.7c-2.59,1.71-3.89,2.52-3.89,5a7.26,7.26,0,0,0,2.1,5,7.75,7.75,0,0,1,.9.81l-1.12,3c-1.47-3.24-3.62-4.86-6.25-4.86-2.24,0-3.81,1.21-3.81,3.05,0,4.78,11.18,3.83,11.18,11.08,0,4.09-3.53,5.76-7.11,5.76a10.1,10.1,0,0,1-7.46-3l1.11-3c1.53,3.33,3.49,4.86,6.26,4.86s4.52-1.53,4.52-3.78c0-5.68-11.4-4.46-11.4-10.71,0-3.6,3.71-5.4,7-5.4a10.3,10.3,0,0,1,3.58.68,10.34,10.34,0,0,1-.63-3.34c0-3.19,2.28-4.36,5-6.25l4.87-3.28h.23v23.8l8.58-9.5c.85-.94-.84-1.39-1.38-1.43v-.23h5.45v.23a2.6,2.6,0,0,0-2.1,1l-6.57,7.34,9.17,10.21A3.17,3.17,0,0,0,104.85,35.82Z"></path><path d="M172.18,39.21c-12.27,0-24.17,6-35.32,6-6.76,0-13.16-2.21-13.16-14.88V23.66c0-5.17-2.87-7.83-7.84-7.83-4.16,0-6.71,1.81-9.4,4.69l2.33,1.15a6.73,6.73,0,0,1,6.5-4.69c3,0,5.41,1.68,5.59,4.91-5.29.18-15.14,1.56-15.14,8.55,0,4.3,3.72,6.11,7.3,6.11a9.3,9.3,0,0,0,7.88-3.9c.72,11.43,7.57,13.73,15,13.73,12,0,24.13-6,36.49-6,6.62,0,12.63,1.73,17.51,5.89l.13-.18C185.34,41.24,179.25,39.21,172.18,39.21Zm-51.3-9.48c0,3.15-3.4,5.45-6.63,5.45-2.86,0-5.82-1.68-5.82-5.41,0-6,7.88-6.68,12.45-6.73Z"></path><path d="M146.08,36.27v.23h-5.59v-.23a1.29,1.29,0,0,0,1.39-1.4V22.46c0-3.29-1.57-5.37-4-5.37-2.24,0-4.55,1.71-6.34,3.56V34.87c0,1.27.8,1.36,1.38,1.4v.23H127.3v-.23c.54,0,1.39-.13,1.39-1.4V19.22l-2.33,1.52V19.58l4.88-3.3h.27v3.25c1.92-1.94,4.46-3.7,7.55-3.7,3.54,0,5.59,2.3,5.59,6.09V34.87A1.3,1.3,0,0,0,146.08,36.27Z"></path></svg>