<svg xmlns="http://www.w3.org/2000/svg" fill="white" viewBox="0 0 200 50"><path d="M97,5.86a2.24,2.24,0,0,1-.64,1.6,2.13,2.13,0,0,1-1.59.65,2.16,2.16,0,0,1-1.62-.64,2.19,2.19,0,0,1-.64-1.61,2.19,2.19,0,0,1,2.26-2.24,2.13,2.13,0,0,1,1.59.65A2.21,2.21,0,0,1,97,5.86Z"></path><path d="M98.76,24v.26H90.69V24h0a2.08,2.08,0,0,0,1.54-.59,2,2,0,0,0,.57-1.53V13.28a2.61,2.61,0,0,0-.4-1.56,2.13,2.13,0,0,0-1.74-.54v-.27h2.7a5.6,5.6,0,0,0,2.06-.29,2,2,0,0,0,.92-.71h.27v12a2,2,0,0,0,.57,1.53,2.07,2.07,0,0,0,1.53.59Z"></path><path d="M121.18,42v.25h-8.07V42a2.19,2.19,0,0,0,1.54-.54,1.88,1.88,0,0,0,.6-1.47V25.7a1.9,1.9,0,0,0-.6-1.46,2.2,2.2,0,0,0-1.54-.55v-.25h2.68a5.78,5.78,0,0,0,2.06-.28,2,2,0,0,0,.93-.67H119V40a1.91,1.91,0,0,0,.59,1.47A2.22,2.22,0,0,0,121.18,42Z"></path><path d="M101.45,41.1v.26H93.8V41.1h0a2,2,0,0,0,1.45-.58A2.12,2.12,0,0,0,95.84,39V31.57a4,4,0,0,0-.5-2.12,1.48,1.48,0,0,0-1.28-.78,2.57,2.57,0,0,0-1.62.69A6.29,6.29,0,0,0,91,31.25V39a2.12,2.12,0,0,0,.56,1.53A2,2,0,0,0,93,41.1h0v.26H85.32V41.1h0a1.92,1.92,0,0,0,1.45-.58A2.11,2.11,0,0,0,87.35,39V30.35A2.67,2.67,0,0,0,87,28.8a1.94,1.94,0,0,0-1.65-.55V28h2.49a5,5,0,0,0,2-.29,1.9,1.9,0,0,0,.88-.71h.25l0,3.69a5.27,5.27,0,0,1,2-2.21,5.19,5.19,0,0,1,2.81-.85,3.43,3.43,0,0,1,2.7,1.16,4.45,4.45,0,0,1,1,3.06V39a2.12,2.12,0,0,0,.56,1.53,1.94,1.94,0,0,0,1.45.58Z"></path><path d="M84.42,40.89v.26l-8.18.09V41h.1a1.6,1.6,0,0,0,1.54-.72,2.28,2.28,0,0,0-.13-2l-.92-2.2-1.18-2.88a7.69,7.69,0,0,0-7.08,5,2,2,0,0,0,.17,1.9,2.18,2.18,0,0,0,1.86.92v.26l-5,0V41.1a1.87,1.87,0,0,0,1-.48,5.26,5.26,0,0,0,.93-1.08,6.45,6.45,0,0,0,.64-1.25h0a8,8,0,0,1,7.34-5.43l-.16-.4L73,26.78v0l-.17-.41,1.89-4.8H75l6.85,16.53c.77,1.86,1.61,2.78,2.53,2.77Z"></path><path d="M90.69,10.81v.26a1.81,1.81,0,0,0-1,.48,5.55,5.55,0,0,0-.92,1.08,5.77,5.77,0,0,0-.65,1.25h0a8,8,0,0,1-7.34,5.44l.16.38,2.32,5.69v0l.17.41-1.89,4.8h-.22L74.5,14.05c-.77-1.86-1.63-2.78-2.54-2.77h-.08V11l8.19-.09v.25H80a1.63,1.63,0,0,0-1.54.73,2.28,2.28,0,0,0,.13,2l.92,2.2L80.66,19a7.71,7.71,0,0,0,7.09-5A2,2,0,0,0,87.58,12a2.19,2.19,0,0,0-1.87-.92v-.26Z"></path><path d="M130.14,9.91v.26a2.39,2.39,0,0,0-1.14.77,5.56,5.56,0,0,0-.8,1.27,8.09,8.09,0,0,1-.65,1.65h0a8.38,8.38,0,0,1-.76,1.17,7.88,7.88,0,0,1-2.2,1.95l.32.84.4,1.07.15.39-1.59,4.1h-.2l-2-5.37-.13-.33-1.15-3-3.73,8.7h-.25l-5-11.84a2.65,2.65,0,0,0-.68-1,1.88,1.88,0,0,0-1.16-.39V9.91h7.08v.26a1.29,1.29,0,0,0-1.16.79,2.33,2.33,0,0,0,.18,1.75l2.6,6.2,2-4.65-1-2.71a2.92,2.92,0,0,0-.61-1,1.5,1.5,0,0,0-1-.4V9.91h6.35v.26a1.15,1.15,0,0,0-1,.79,2.65,2.65,0,0,0,.17,1.75l1.48,3.95a7.74,7.74,0,0,0,3.19-3.88.5.5,0,0,0,0-.13v0a3.42,3.42,0,0,0,.09-.38,2.48,2.48,0,0,0,.06-.54,1.61,1.61,0,0,0-.34-1.06,1.35,1.35,0,0,0-1-.48V9.91Z"></path><path d="M133.49,37.82a5.27,5.27,0,0,1-1.84,1.6,5.09,5.09,0,0,1-2.39.59,4.05,4.05,0,0,1-2.56-.83,3.72,3.72,0,0,1-.27-1.41A3.82,3.82,0,0,1,129.9,34h3.62v0l0-.36a5,5,0,0,0-2.84-4.24,6.43,6.43,0,0,0-2.83-.6,6.78,6.78,0,0,0-3.42.85A6,6,0,0,0,122,32a6.94,6.94,0,0,0-.86,3.53A7.49,7.49,0,0,0,122,39a6,6,0,0,0,2.18,2.39,6.12,6.12,0,0,0,3.2.85,6.87,6.87,0,0,0,2.38-.4l.4-.16c.11,0,.21-.1.32-.15a6.86,6.86,0,0,0,1.9-1.38,6,6,0,0,0,1.38-2.28Zm-7.53.59a6.83,6.83,0,0,1-1.23-4.27V34h0l0-.38h0c0-.24,0-.48.07-.71v-.06a5.9,5.9,0,0,1,.79-2.48,2.2,2.2,0,0,1,1.91-1.21,2.1,2.1,0,0,1,1.87,1.24,6.72,6.72,0,0,1,.66,3h0v.22a4.2,4.2,0,0,0-4,4.13,3.88,3.88,0,0,0,.1.9Z"></path><path d="M111.08,19a5.05,5.05,0,0,1-1.85,1.6,5.12,5.12,0,0,1-2.39.59,4,4,0,0,1-2.54-.83A3.73,3.73,0,0,1,104,18.9a3.85,3.85,0,0,1,3.48-3.77h3.6v0l0-.36a5.19,5.19,0,0,0-.85-2.53,5.14,5.14,0,0,0-2-1.71,6.5,6.5,0,0,0-2.84-.6,6.91,6.91,0,0,0-3.42.84,6.11,6.11,0,0,0-2.36,2.37,6.92,6.92,0,0,0-.87,3.53,7.42,7.42,0,0,0,.79,3.49,5.94,5.94,0,0,0,2.18,2.39h0a6,6,0,0,0,3.21.86,6.86,6.86,0,0,0,2.37-.41,2.74,2.74,0,0,0,.4-.15l.32-.15a6.7,6.7,0,0,0,1.9-1.39A6,6,0,0,0,111.31,19Zm-7.53.59a6.86,6.86,0,0,1-1.23-4.28v-.13h0l0-.38h0c0-.24,0-.48.06-.72v0h0a6.2,6.2,0,0,1,.79-2.48,2.21,2.21,0,0,1,1.91-1.21A2.09,2.09,0,0,1,107,11.53a6.56,6.56,0,0,1,.66,3v.22a4.2,4.2,0,0,0-4,4.13,3.74,3.74,0,0,0,.11.89Z"></path><path d="M114,35.88v-.06a8,8,0,0,0-4.53-7.13,9,9,0,0,0-1.16-.46,8.56,8.56,0,0,0-2.38-.35h-.17a5.89,5.89,0,0,0-4,1.27,4.21,4.21,0,0,0-1.48,3.36A4.45,4.45,0,0,0,101,35a4.34,4.34,0,0,0,2,1.61,4.78,4.78,0,0,0-1.88,1.15,2.26,2.26,0,0,0-.67,1.56c0,1,.8,1.74,2.42,2.16a6,6,0,0,0-2.35,1.07,2,2,0,0,0-.87,1.58c0,.77.56,1.4,1.68,1.88a11.43,11.43,0,0,0,4.42.72A10.76,10.76,0,0,0,111,45.67a3.3,3.3,0,0,0,1.91-3,3.12,3.12,0,0,0-1.61-2.76,9.18,9.18,0,0,0-4.57-1.12l-.9,0c-.63,0-1.17-.06-1.62-.11a8.75,8.75,0,0,1-1-.17c-.48-.12-.72-.35-.72-.68s.27-.73.82-1a6.84,6.84,0,0,0,2.45.4,5.83,5.83,0,0,0,4-1.27,4.31,4.31,0,0,0,1.44-3.38,4.55,4.55,0,0,0-.54-2.26,4.07,4.07,0,0,0-.72-.92,7.57,7.57,0,0,1,3.73,6.5v.05Zm-10.77,5.69c.32.06.69.12,1.11.16s.89.07,1.38.09l.91,0a6.81,6.81,0,0,1,2.9.51,1.53,1.53,0,0,1,.9,1.36,2,2,0,0,1-.6,1.4,4.21,4.21,0,0,1-1.61.94,6.7,6.7,0,0,1-2.19.35,4.52,4.52,0,0,1-2.85-.79,2.52,2.52,0,0,1-1-2.1,2.86,2.86,0,0,1,.26-1.26A1.28,1.28,0,0,1,103.24,41.57Zm3.8-5.9c-.34.79-.78,1.19-1.31,1.19s-.94-.39-1.26-1.16a9.21,9.21,0,0,1-.46-3.19,8.89,8.89,0,0,1,.46-3.15c.32-.77.74-1.15,1.29-1.15H106c.43.09.78.46,1.06,1.12a8.43,8.43,0,0,1,.47,3.15A8.52,8.52,0,0,1,107,35.67Z"></path></svg>