<svg xmlns="http://www.w3.org/2000/svg" fill="#dd7210" height="512" viewBox="0 0 52 52" width="512"><g><path d="m47.6 51c.5 0 .9-.4.9-.9l-.1-13.4c-.1-7.8-.1-5.5-.2-13.4 0-.2-.1-.3-.2-.5l-4.5-4.4v-1l.1-4.4c0-.1 0-3.7 0-3.6v-.4c0-.2-.1-.5-.1-.7-.4-1.4-1.6-2.5-3-2.8-.2 0-.5-.1-.7-.1h-.6-4.4-4.8c-1.1-1.4-1.7-2.4-3.4-4.2-.3-.3-.8-.4-1.1-.1-.9.8-1.8 1.7-2.6 2.4-.7.7-1.4 1.4-2.1 2.1h-3.7-4.4-.6c-.2 0-.5 0-.7.1-1.4.3-2.6 1.4-3 2.8 0 .2-.1.4-.1.7v.4c0 .1 0 3.7 0 3.6l.1 4.4v1l-4.5 4.4c-.1.1-.2.3-.2.5-.2 16-.2 10.7-.2 26.7 0 .5.4.9.9.9h21.6zm-42.3-1.8-.1-12.5-.1-12.8c1.2.9 2.3 1.7 3.5 2.6 0 .2.1.3.3.4.7.4 1.3.8 2 1.2 4.8 3.3 8.4 5.6 13.3 8.7-3.1 2-6.3 3.9-9.3 6-3.1 2.1-6.2 4.2-9.2 6.5zm35.9-21.1c.7-.4 1.3-.8 2-1.2.2-.1.2-.3.3-.4 1.2-.8 2.3-1.7 3.5-2.6l-.2 12.8-.1 12.4h-.3c-3-2.2-6.1-4.4-9.2-6.4-3.1-2.1-6.2-4-9.3-6 4.9-3 8.4-5.3 13.3-8.6zm5.7-4.4v.1c-1.2.6-2.3 1.2-3.5 1.8l.1-5.3zm-22.6-18.8c.6-.6 1.2-1.3 1.8-1.9 1.5 1.2 1.9 1.4 3.5 2.6h-3.6-2.4c.2-.3.5-.5.7-.7zm-14.3 8.2c0-.1 0-3.5 0-3.3v-.3-.2c0-.1 0-.3.1-.4.2-.7.9-1.3 1.6-1.4h.4.6 4.4 8.8c20.3-.1-4 0 13.8-.1h.4c.9.3 1.5.8 1.7 1.6 0 .1.1.2.1.4v.2c0 .1 0 1.5 0 1.4v2.2l.1 4.4.2 8.5c-.5.4-1.1.7-1.6 1.1-1.4.8-2.8 1.5-4.1 2.3-3.5 2-6.9 4.1-10.4 6.1-5.2-3.2-9.2-5.5-14.6-8.5-.5-.4-1.1-.7-1.6-1.1l.2-8.5zm-1.5 12.4c-1.1-.6-2.3-1.2-3.5-1.8v-.1l3.4-3.5zm-2.4 23.7c3.2-1.6 6.4-3.4 9.5-5.1 3.5-2 6.9-4.1 10.4-6.1 3.5 2.1 6.9 4.2 10.4 6.2 3.1 1.8 6.3 3.5 9.5 5.1l-19.9-.2z"></path><path d="m31.7 12.3c1.9-.1 3.8-.4 5.7-.8-1.9-.4-3.8-.6-5.7-.8-3.7-.3-7.3-.3-11.4 0-1.9.1-3.8.4-5.7.8 1.9.4 3.8.6 5.7.8 4 .3 7.7.3 11.4 0z"></path><path d="m31.7 18.3c1.9-.1 3.8-.4 5.7-.8-1.9-.4-3.8-.6-5.7-.8-3.7-.3-7.4-.3-11.4 0-1.9.1-3.8.4-5.7.8 1.9.4 3.8.6 5.7.8 4 .3 7.7.2 11.4 0z"></path><path d="m31.7 24.2c1.9-.1 3.8-.4 5.7-.8-1.9-.4-3.8-.6-5.7-.8-3.7-.3-7.4-.3-11.4 0-1.9.1-3.8.4-5.7.8 1.9.4 3.8.6 5.7.8 4 .3 7.7.3 11.4 0z"></path></g></svg>