<svg xmlns="http://www.w3.org/2000/svg" fill="#dd7210" viewBox="0 0 100 100"><path d="M94.8,48Q91.41,44.58,88,41.18a2.48,2.48,0,0,1-.82-2c0-2.58,0-5.17,0-7.75a8.59,8.59,0,0,0-7.52-9c-.89-.16-1.19-.53-1.16-1.4.09-2.3.2-4.61.18-6.91A10.9,10.9,0,0,0,67.36,3c-4.46,0-8.91.24-13.36.33-7,.15-14.08.24-21.12.4A10,10,0,0,0,24,9.11a11,11,0,0,0-1.27,5.79c.08,7.57-.2,15.13-.42,22.68,0,1.48-.16,3-.17,4.43a1.08,1.08,0,0,1-1.07,1.22c-4.9.68-7.74,4-7.77,8.94q0,3.78,0,7.56a2.08,2.08,0,0,1-.67,1.64c-2.29,2.23-4.54,4.51-6.85,6.72a6.65,6.65,0,0,0-2.22,4.62C3.44,75.65,5,79.32,9.35,79.42c3.72.08,7.43.23,11.15.34,1.41,0,1.55.13,1.47,1.55a44.89,44.89,0,0,0,0,5.8,10.82,10.82,0,0,0,10.73,10c2.15,0,4.3-.08,6.45-.14,8.63-.24,17.27-.39,25.91-.57v0h2.67a10.17,10.17,0,0,0,9.65-7.93A26.56,26.56,0,0,0,77.7,83c0-7.66.34-15.3.58-22.95,0-.91.41-1.3,1.27-1.3,1.54,0,3.08,0,4.62-.05,2.48,0,5,.08,7.46-.18a5.06,5.06,0,0,0,4.19-2.62A7,7,0,0,0,94.8,48ZM48.58,7.26c.05-1.74.19-1.88,2-1.87.64.1,1.56-.3,1.85.86.42,1.69.14,2.79-1,3.42a1.94,1.94,0,0,1-2.85-1.32A5,5,0,0,1,48.58,7.26ZM24.17,13.09a8.65,8.65,0,0,1,8.39-8c4-.08,7.93.1,11.9.15a.87.87,0,0,1,1,.94,13.84,13.84,0,0,0,.26,1.92A4.23,4.23,0,0,0,54,8.2a8.14,8.14,0,0,0,.28-1.44c.06-1,.58-1.23,1.47-1.21,3.94.09,7.87.1,11.8.23a7.92,7.92,0,0,1,7.84,8.12c0,2.39.12,4.79.16,7.19,0,1.13-.17,1.27-1.31,1.18-.37,0-.74-.06-1.1-.07l-15-.21c-3.63,0-7.25-.22-10.88-.19a9.27,9.27,0,0,0-9.52,9.49c0,1.63,0,3.26,0,4.89h0c0,1.94,0,3.87,0,5.81,0,.75-.2,1.06-1,1-3.6,0-7.19,0-10.79,0-.88,0-1.16-.4-1.19-1.24-.29-8.35-.64-16.7-.56-25.06C24.21,15.54,24.05,14.33,24.17,13.09ZM11.31,77.33c-.52,0-1.05,0-1.57,0-2.86,0-4.49-1.79-4.31-4.67a4.45,4.45,0,0,1,1.19-3c1.92-2,3.86-3.88,5.73-5.88,2.78-3,2.5-1.93,2.34-6.31-.07-1.87-.13-3.75,0-5.62.21-4.72,3.13-7.48,7.92-7.53,4.15,0,8.3.06,12.45.13,5.56.1,11.13,0,16.69.06a9.47,9.47,0,0,1,5.08,1.06,6.31,6.31,0,0,1,3.37,5.49c0,6.64,0,13.28-.33,19.91a6.14,6.14,0,0,1-6.21,5.83c-4.42,0-8.85,0-13.28,0h0c-3.59,0-7.19-.07-10.79,0C23.47,77,17.39,77.16,11.31,77.33ZM58.67,44.55a1.33,1.33,0,0,1,1-.23c4.91-.09,9.82.13,14.73.21a5.68,5.68,0,0,1,1.54.23A2,2,0,0,1,77.41,47a1.87,1.87,0,0,1-1.8,1.77,28.89,28.89,0,0,1-3.22-.13c-3.12,0-6.25-.29-9.38,0a1.58,1.58,0,0,1-1.82-1A10.44,10.44,0,0,0,58.67,44.55ZM26.27,79.94H49.6c1.67,0,3.32-.06,5-.2,4.15-.33,7.92-4.52,8-8.89.08-3.35-.21-6.69-.19-10,0-1.45.07-1.49,1.5-1.54,3.44-.11,6.88-.26,10.32-.35,1.36,0,1.43.09,1.47,1.47.11,3.34.25,6.69.36,10a1.78,1.78,0,0,1-.2,1.17c-.34-.56-.6-1-.92-1.47s-.42-1-1-.8-.2.88-.08,1.32a14.07,14.07,0,0,0,1.79,4.13,4.27,4.27,0,0,1,.49,3.1c-.44,0-.49-.4-.64-.63a27.78,27.78,0,0,0-2.44-3.47c-.24-.28-.52-.75-1-.45s-.1.68,0,1a19.39,19.39,0,0,0,3.33,5.28A2.66,2.66,0,0,1,76,82.44c-.09.25-.09.62-.4.68s-.4-.32-.54-.54a28.4,28.4,0,0,0-3.61-4.76c-.16-.16-.31-.31-.47-.45s-.37-.26-.59-.12a.45.45,0,0,0-.11.59,17.37,17.37,0,0,0,.77,1.56,34.52,34.52,0,0,0,3.36,4.51,1.41,1.41,0,0,1-.55,2.17c-.44.17-.52-.21-.67-.45a19.35,19.35,0,0,0-3.43-4,3.14,3.14,0,0,0-.51-.39c-.21-.13-.45-.25-.68,0s-.1.47,0,.68a13.19,13.19,0,0,0,2,2.77q.9.93,1.83,1.83c.38.36.38.67-.08,1-.29.17-.59.33-.88.51a1.23,1.23,0,0,1-1.88-.37,33.09,33.09,0,0,0-4-4.43c-.35-.31-.77-.88-1.23-.5s0,.92.26,1.3a16.61,16.61,0,0,0,3.55,3.84c.25.2.68.42.57.76s-.59.19-.91.23-.43,0-.64,0a3.09,3.09,0,0,1-3.6-1.75,9.26,9.26,0,0,0-2.69-2.75c-.27-.22-.62-.56-1-.23s-.08.75.13,1.07a14.05,14.05,0,0,0,2.25,2.56,2.39,2.39,0,0,1,.91,1,18.44,18.44,0,0,1-3.41,0c-.33,0-.49-.34-.7-.56a16.89,16.89,0,0,0-2.7-2.51c-.27-.18-.59-.44-.91-.13s-.07.63.08.92a7.6,7.6,0,0,0,1.19,1.4c.21.24.68.42.49.79s-.62.16-.94.15c-.71,0-1.41-.12-2.12-.14-2.27-.06-4.54-.06-6.82-.16-4.69-.22-9.4-.3-14.1-.41a8.6,8.6,0,0,1-8.12-6.71C24.85,80.17,25,79.94,26.27,79.94Zm50.12,6.58a8.84,8.84,0,0,1-9.19,8.54q-9.95-.11-19.9-.38c-4.64-.13-9.27-.29-13.91-.34a8,8,0,0,1-7.73-5.22,1,1,0,0,1-.08-.85,11.41,11.41,0,0,0,5.85,2.47,10.13,10.13,0,0,0,1.56.09l20.35-.69c.64,0,1.29,0,1.93,0,4,.13,8-.23,12.08-.15a10,10,0,0,0,8-3.84c.22-.26.39-.81.78-.67S76.41,86.14,76.39,86.52ZM93.92,56.1A3.87,3.87,0,0,1,91,57.23q-7.74-.13-15.49-.31c-3.37-.08-6.75-.17-10.14-.23-2.9,0-2.9,0-3-2.9,0-.22,0-.43,0-.65-.12-1.61-.11-1.62,1.56-1.61h4.25c2.33,0,4.67-.06,7-.18a4.31,4.31,0,0,0,4.41-4.53,4.2,4.2,0,0,0-4.64-4c-5.86.29-11.73.36-17.6.37-1.58,0-3.11-.46-4.68-.38-3.47.19-7,.17-10.42.17-1.56,0-1.66-.05-1.6-1.6.12-3.54.15-7.07.19-10.6a6.35,6.35,0,0,1,6.08-6c2.64,0,5.28-.12,7.92-.18,5.57-.11,11.13-.1,16.69-.24,2.37-.06,4.73-.16,7.1-.15a7,7,0,0,1,7,7c0,2.89.13,5.78.16,8.67a2.38,2.38,0,0,0,.77,1.79c2.43,2.4,4.86,4.8,7.24,7.24A5.28,5.28,0,0,1,93.92,56.1Z"></path><path d="M54.83,54.11a4.51,4.51,0,0,0-4.33-4c-1.57-.09-3.13.08-4.7.14-6.66.22-13.33.39-20,.59a11.44,11.44,0,0,0-1.65.2,3.41,3.41,0,0,0-2.26,1.62,3.76,3.76,0,0,0,3.15,5.9c2.06.06,4.12,0,6.18.07,5.9.21,11.79.46,17.64.69a13.23,13.23,0,0,0,2.53-.1A4.46,4.46,0,0,0,54.83,54.11Zm-4.9,2.39c-2.42.12-4.84.26-7.27.35q-6.85.24-13.72.44v0c-1.26,0-2.52,0-3.78,0a2.4,2.4,0,1,1,0-4.79c5.19,0,10.38.31,15.56.5,3,.12,6.08.16,9.12.24,1.14,0,1.7.43,1.85,1.29C51.89,55.69,51.24,56.44,49.93,56.5Z"></path><path d="M54.1,64.69a4.72,4.72,0,0,0-4.75-2c-2.79.23-5.59.16-8.38.28-5.31.22-10.63.31-15.94.58a3.77,3.77,0,0,0-3.76,3.94,3.64,3.64,0,0,0,3.92,3.64c1.36,0,2.71,0,4.06,0,6.3.22,12.59.47,18.89.7v0h1.93a4.29,4.29,0,0,0,4.17-2.21A4.66,4.66,0,0,0,54.1,64.69Zm-2.39,2.84c0,.91-.52,1.37-1.52,1.53a62.13,62.13,0,0,1-6.25.31c-4.33.24-8.66.31-13,.42-1.34,0-2.7,0-4.05,0a5.52,5.52,0,0,1-2.29,0,2.43,2.43,0,0,1-2-2.57A2.27,2.27,0,0,1,25,65c2.65,0,5.29,0,7.92.22,2.3.17,4.61.12,6.91.27,3.09.19,6.2.16,9.3.23a7.71,7.71,0,0,1,1.28.1A1.49,1.49,0,0,1,51.71,67.53Z"></path><path d="M75.51,29.57c-1.76-.09-3.5.15-5.25.19-4.64.09-9.29.17-13.92.42a60.87,60.87,0,0,0-6.62.29,3.4,3.4,0,0,0-1.83.79,4.05,4.05,0,0,0-1.16,4.46,3.74,3.74,0,0,0,3.65,2.33c1.87,0,3.75,0,5.62.05,6,.22,12,.47,17.68.69.87,0,1.45,0,2,0a4.25,4.25,0,0,0,4.17-3.27A4.57,4.57,0,0,0,75.51,29.57ZM75.09,36q-7.41.36-14.83.59c-2,.06-4,.17-6,.15-1.36,0-2.71,0-4.06,0a2.28,2.28,0,0,1-2.37-2.48A2.16,2.16,0,0,1,50.26,32c5.06.13,10.13.31,15.2.48l7.83.24c.59,0,1.17,0,1.75,0,1.18,0,1.93.71,1.92,1.68S76.22,36,75.09,36Z"></path></svg>