<svg xmlns="http://www.w3.org/2000/svg" fill="#dd7210" viewBox="0 0 100 100"><path d="M95.36,21.51A9.86,9.86,0,0,0,93,16.12C90.31,12.89,87.64,9.67,85,6.41a9.68,9.68,0,0,0-6.33-3.6,19.11,19.11,0,0,0-3.21,0c-4.21.06-8.43,0-12.64.14-6.7.19-13.4,0-20.11.19s-13.53,0-20.3.06A8.63,8.63,0,0,0,15.53,6.4C12.74,9.76,10,13.19,7.31,16.6a9.08,9.08,0,0,0-2.2,5.28,41.82,41.82,0,0,0,0,4.88,9.52,9.52,0,0,0,3.44,6.9,1.55,1.55,0,0,1,.56,1.21c.05,1.41.14,2.82.17,4.24.13,6.23.27,12.47.36,18.71.09,5.54-.07,11.07.21,16.08,0,6.25,0,12,0,17.69a4.09,4.09,0,0,0,1.62,3.54,4.83,4.83,0,0,0,3,.74c10.86.07,21.71-.11,32.57.13,7.53.17,15.06,0,22.6.22,3.53.1,7.07-.06,10.6.15,2,.12,4,.08,6,0a4.33,4.33,0,0,0,4.27-4.33c0-1.75.13-3.5.16-5.25.09-6.95,0-13.9.15-20.85.14-9.84.18-19.68-.13-29.52a2.46,2.46,0,0,1,.91-2.16,10.85,10.85,0,0,0,3.81-7.16A27.08,27.08,0,0,0,95.36,21.51ZM68.65,4.89c3.2,0,6.4-.17,9.59.16a6.53,6.53,0,0,1,4.61,2.59Q87.07,13,91.24,18.42c.22.28.59.59.43,1s-.7.26-1.08.26H82.66c-2.28.05-5.3-.16-8.3.17a2.25,2.25,0,0,1-2.53-1.46,32.6,32.6,0,0,1-2.74-7.9c-.33-1.54-.6-3.08-1.06-4.59C67.85,5.29,67.93,4.88,68.65,4.89Zm.65,17.67c1.16,0,1.33.27,1.19,1.43a10.78,10.78,0,0,0,.1,3.31A5,5,0,0,1,69,31.73a9,9,0,0,1-7.7,2.94,12.18,12.18,0,0,1-5.51-1.24,8,8,0,0,1-4.28-7c0-1-.09-2-.14-2.95-.07-1.22.09-1.38,1.32-1.4h1a0,0,0,0,1,0,0C58.93,22.23,64.12,22.37,69.3,22.56ZM51.05,9.61a17.58,17.58,0,0,0,.35-3.75c0-.9.37-1.2,1.22-1.18,1.66,0,3.32,0,5.23,0,1.68.06,3.62-.06,5.55.11a1.32,1.32,0,0,1,1.32,1,34.33,34.33,0,0,0,2.7,5.64,29.87,29.87,0,0,1,2.66,7c.29,1.23.2,1.34-1,1.4-4.08.21-8.16.32-12.25.37-1.47,0-2.94.21-4.42.17-1.19,0-1.35-.16-1.56-1.33A28,28,0,0,1,51.05,9.61ZM35.22,5.4a1.09,1.09,0,0,1,1.2-.89c3.69-.06,7.38.1,11.07.18.48,0,.87.15.86.73-.07,2.87.76,5.66.88,8.52a29.58,29.58,0,0,1-.31,5.32c-.11.81-.55,1.1-1.37,1.16-3.13.19-6.27.11-8.73.14-3.16,0-5.66,0-8.15,0-1.19,0-1.33-.2-1.1-1.4A30.92,30.92,0,0,1,33.15,10,22.43,22.43,0,0,0,35.22,5.4ZM47,21.88c1.25,0,1.49.24,1.33,1.49a14.6,14.6,0,0,0,.13,4.23,3.78,3.78,0,0,1-.56,2.81,8.71,8.71,0,0,1-8.6,4.24,23.79,23.79,0,0,1-3-.24,8.59,8.59,0,0,1-6.89-8.35c0-.89,0-1.78,0-2.67,0-1.45.07-1.53,1.49-1.53h7.93v0C41.57,21.87,44.31,21.86,47,21.88ZM7.59,18.66c2-2.9,4.28-5.55,6.46-8.29.74-.94,1.48-1.88,2.21-2.83a7.4,7.4,0,0,1,6.12-3H31c1.12,0,1.19.12.85,1.19-.8,2.52-1,5.17-1.84,7.7a29.31,29.31,0,0,1-2.7,6.15,1.81,1.81,0,0,1-1.9,1c-1.19-.08-2.39,0-3.59,0-4.54-.2-9.09-.31-13.62-.65C7.12,19.77,7,19.53,7.59,18.66Zm-1,6.94c0-.37,0-.74,0-1.11,0-1.88,0-2,1.94-2,3.84-.16,7.68-.27,11.52-.4,1.69-.06,3.38-.13,5.07-.17,1.23,0,1.25,0,1.24,1.22,0,.67,0,1.35,0,2.08a21.25,21.25,0,0,1,0,3,7.69,7.69,0,0,1-6,6,15.88,15.88,0,0,1-6.33.18A8.44,8.44,0,0,1,6.54,25.6Zm4.84,36.62c.17-4.89,0-9.78.28-14.67.06-1,.38-1.34,1.34-1.42,1.9-.17,3.81-.13,5.71-.23,3.28-.19,6.57-.16,9.86-.24,4.83-.13,9.65-.22,14.48-.18,3,0,4.63,1.62,4.63,4.6,0,3.63,0,7.26,0,10.89h-.07q-.15,9.54-.31,19.09a8.8,8.8,0,0,1-.09,1,3.45,3.45,0,0,1-3.84,3.36c-6.86,0-13.71-.3-20.57-.21-3.41,0-6.83,0-10.24,0-1.24,0-1.43-.15-1.38-1.37C11.46,76,11.14,69.1,11.38,62.22Zm70.25.24c0,3.87-.11,7.74-.18,11.62,0,.26.11.62-.19.74s-.48-.21-.66-.4a33.65,33.65,0,0,0-3-2.69c-.25-.19-.55-.52-.89-.18s-.05.64.13.91A12.34,12.34,0,0,0,80,75.9c1.77,1.18,1.52,2.86,1.4,4.53-.05.68-.47.22-.67,0-1-1-2-2-3-2.92-.7-.68-1.45-1.33-2.21-2-.25-.2-.57-.67-.93-.29s0,.68.24,1A21.67,21.67,0,0,0,78,79.8c1,1,2,1.87,3,2.79a1.25,1.25,0,0,1,.5.94c0,.83,0,1.66,0,2.49,0,.51-.23.63-.61.25S80,85.45,79.59,85c-1.8-1.81-3.56-3.65-5.51-5.31-.26-.22-.52-.43-.8-.63s-.46-.45-.72-.24,0,.56.14.8A19.32,19.32,0,0,0,75,82.5c1.87,1.91,3.7,3.87,5.75,5.6a1.72,1.72,0,0,1,.67,1.44c0,.8,0,1.6,0,2.4,0,.18,0,.41-.22.44a.53.53,0,0,1-.39-.2c-.51-.53-1-1.1-1.49-1.63a110.71,110.71,0,0,0-8.07-7.7,3.37,3.37,0,0,0-.44-.33c-.19-.12-.4-.24-.59-.06s-.1.47.06.65c.86,1,1.72,2,2.6,3a79.72,79.72,0,0,0,7.35,7.24c.14.12.34.23.3.44S80.22,94,80,94l-.83,0c-3.64.28-2.55.32-4.9-2.23a64.54,64.54,0,0,0-6.68-6.34.83.83,0,0,0-.15-.11c-.26-.14-.52-.47-.82-.2s0,.57.18.8c.4.53.82,1.07,1.27,1.57a56.59,56.59,0,0,0,5.44,5.51,3.27,3.27,0,0,1,.47.44c.14.15.38.28.26.53s-.31.17-.49.17H70.63a1.53,1.53,0,0,1-1.19-.75A30,30,0,0,0,64,88.1c-.27-.21-.6-.62-.95-.27s0,.68.24,1a34.48,34.48,0,0,0,4.38,4.74c.15.13.43.23.34.48s-.37.16-.57.19-.25,0-.37,0c-1.94.25-3.61-.06-4.78-1.9a6.72,6.72,0,0,0-2.1-1.77c-.27-.18-.6-.46-.91-.17s0,.63.15.9a13.61,13.61,0,0,0,2,2.32c.17.16.46.32.34.59s-.43.19-.67.19h-4c-.73,0-1.06-.28-1.09-1-.12-3.87-.23-7.74-.39-11.61-.25-5.84,0-11.69-.35-17V50.66c0-.34,0-.68,0-1a4,4,0,0,1,4.26-4.14c2.49,0,5-.1,7.47,0,3.2.16,6.4.08,9.59.14a14.55,14.55,0,0,1,1.75.11c2.35.31,3.45,1.6,3.5,3.95C81.93,54,81.64,58.21,81.63,62.46Zm6.24,30.06a2.28,2.28,0,0,1-3.12,1.34,1,1,0,0,1-.33-.91c0-1.26.07-2.52.1-3.78.09-4.52.16-9,0-13.56,0-1-.07-2-.06-3,.1-5.94-.24-11.87-.22-17.8,0-1.78-.1-3.57-.17-5.35a5.69,5.69,0,0,0-6.16-5.54c-4.79.19-9.59-.09-14.38.27-1.51.11-3-.2-4.51,0a5.51,5.51,0,0,0-5,5.66c0,3.29,0,6.58,0,9.87.08,6.4-.14,12.79-.25,19.18-.08,4.76-.13,9.53-.46,14.29-.06.9-.4,1.22-1.3,1.23-12.6.19-25.21.18-37.82.16a2.68,2.68,0,0,1-3-3c0-1.08,0-2.16,0-3.23,0-.88.36-1.2,1.22-1.19,2.33,0,4.67.23,7,.2,6.55-.09,13.09-.14,19.64-.22,1.6,0,3.2-.09,4.8-.17a5.75,5.75,0,0,0,5.53-6c0-10.43-.49-20.84-.38-31.27v-.09a5.45,5.45,0,0,0-5.63-5.48c-5.5-.06-11,0-16.51-.21-4.7-.15-9.4-.19-14.09-.51-.75-.05-1.06-.36-1-1.09l.18-5.81c0-.82.51-.77,1.08-.61a17.63,17.63,0,0,0,7.23.19,9.8,9.8,0,0,0,7-4.26c.43-.62.69-.61,1.14,0a10.58,10.58,0,0,0,10.2,4.27c1.1-.11,2.21,0,3.31-.22a10.56,10.56,0,0,0,7.07-4.44c.45-.63.66-.8,1.19,0a10.51,10.51,0,0,0,10.25,4.72c1-.09,2.09-.07,3.13-.2a10.27,10.27,0,0,0,7.45-4.44c.46-.66.71-.57,1.09,0A11,11,0,0,0,81.76,37a26.42,26.42,0,0,0,4.87-.24c.85-.14,1.13.19,1.12,1,0,1.26,0,2.52,0,3.78q0,11.72,0,23.44c0,8.7.29,17.4.2,26.1A10.47,10.47,0,0,1,87.87,92.52Zm3.65-62.91a7.73,7.73,0,0,1-6.1,4.08,23.14,23.14,0,0,1-5.06,0,8,8,0,0,1-6.81-6.77c-.11-1-.13-2.09-.2-3.13,0-.81.28-1.22,1.12-1.17.55,0,1.11,0,1.66,0,3.44.25,6.88.17,10.32.16,1.63,0,3.26-.09,4.88-.16.87,0,1.2.32,1.21,1.19C92.56,25.8,92.58,27.79,91.52,29.61Z"></path><path d="M30.55,52.16c-1.06,1.11-2.16,2.19-3.27,3.26l-9.09,8.76a2,2,0,0,1-1.32.77,1.27,1.27,0,0,1-1.14-1.77,2.57,2.57,0,0,1,.53-.74q5.79-6,11.6-12a4.68,4.68,0,0,1,.62-.56,1.51,1.51,0,0,1,2.08.2A1.42,1.42,0,0,1,30.55,52.16Z"></path><path d="M21.25,52a33.06,33.06,0,0,1-3.66,3.22,1.46,1.46,0,0,1-.54.19,1.27,1.27,0,0,1-1.26-.71,1,1,0,0,1,.07-1.21A37.32,37.32,0,0,1,19,49.9a1.47,1.47,0,0,1,2.08.11A1.35,1.35,0,0,1,21.25,52Z"></path><path d="M62.86,69.31a4.18,4.18,0,0,0-4.27,4.15,4,4,0,0,0,4.32,4.13,3.9,3.9,0,0,0,4.14-4.07A4.13,4.13,0,0,0,62.86,69.31Zm-.78,5.63a2.08,2.08,0,0,1,.18-4.16,2,2,0,0,1,2,2A2.27,2.27,0,0,1,62.08,74.94Z"></path></svg>