<svg xmlns="http://www.w3.org/2000/svg" fill="#dd7210" viewBox="0 0 100 100"><path d="M96.4,27a7.63,7.63,0,0,1-1.32-5.14,4.35,4.35,0,0,0-2.79-4.64A6.1,6.1,0,0,1,89,14a4.38,4.38,0,0,0-4.09-2.8,16.13,16.13,0,0,0-2.2.06c-.83.08-1.24-.25-1.31-1.13a7.63,7.63,0,0,0-8.07-7.49c-3.5,0-7,.23-10.5.33-7.16.2-14.32.49-21.48.54-6.67.05-13.34.24-20,.06-3.26-.09-6.53.16-9.78-.13a7.35,7.35,0,0,0-8.22,7.31c0,2.59-.07,5.17-.14,7.75C3,26.27,2.92,34,2.83,41.76c-.05,5.63,0,11.26,0,16.89A23.57,23.57,0,0,0,3,61.31a4.44,4.44,0,0,0,4.63,4.1c2.18,0,4.36,0,6.55,0,1.3,0,1.42.11,1.4,1.44,0,2-.13,4-.16,6-.12,6.52.12,13,.17,19.55a3,3,0,0,0,5.17,2.41C21.85,93.88,23,93,24.06,92a1.06,1.06,0,0,1,1.6-.07c1.72,1.39,3.48,2.73,5.25,4.06a2.69,2.69,0,0,0,3.63,0q2.57-2,5.06-4.17a1.4,1.4,0,0,1,2-.06c1.63,1.31,3.3,2.57,5,3.85,1.37,1,2.31,1.07,3.66,0,1.74-1.36,3.45-2.77,5.15-4.19a1.35,1.35,0,0,1,2,0c1.65,1.34,3.35,2.61,5,3.92,1.39,1.09,2.12,1.16,3.54.07,1.6-1.2,3.13-2.48,4.67-3.76,1.34-1.1,1.69-1.11,3,0s2.34,1.92,3.57,2.78a2,2,0,0,0,3.15-.87A3.89,3.89,0,0,0,80.51,92V78.5h.18q0-7,0-14c0-.29-.11-.67.25-.82s.44.14.63.29a2.38,2.38,0,0,0,2.61.28A2.24,2.24,0,0,0,85.32,62c0-2.49.05-5,.2-7.46.14-2.27.17-4.55.49-6.81,0-.4.08-.82.51-1A5.17,5.17,0,0,0,88.89,44a4.78,4.78,0,0,1,2.47-2.36c.37-.16.71-.36,1.07-.55a3.78,3.78,0,0,0,2.3-3.86,7.43,7.43,0,0,1,1.57-5.33A4,4,0,0,0,96.4,27Zm-85.5,9.8A15.51,15.51,0,0,0,15,36.9c1.08-.09,1.22,0,1.24,1.12v.56c0,1-.24,1.2-1.23,1.08a16,16,0,0,0-4.68.11,6.25,6.25,0,0,0-.72.17c-.18.06-.34.15-.34.38a.44.44,0,0,0,.33.4,4.25,4.25,0,0,0,1.62.31c1.38,0,2.76,0,4.15,0,.6,0,.87.2.82.79-.21,2.44.05,2.15-2.17,1.95A19.54,19.54,0,0,0,9.47,44c-.3,0-.68.08-.69.47s.37.45.66.51a16.41,16.41,0,0,0,5.23.22c1.24-.14,1.44,0,1.42,1.23,0,2.47.36,2.36-2.36,2.09a21.36,21.36,0,0,0-4.86.29c-.27,0-.61.09-.62.43s.35.48.64.53a18.6,18.6,0,0,0,5.42.24C16,49.81,16.17,50,16,51.6c-.16,1.95-.16,2-2.14,1.74a21.54,21.54,0,0,0-5.5.24c-.31,0-.69.06-.7.46s.38.45.67.5a20.7,20.7,0,0,0,5.88.23c1.5-.17,1.66,0,1.67,1.46,0,2.13,0,2.18-2.14,1.91A23.86,23.86,0,0,0,8,58.37c-.32,0-.76,0-.75.49s.45.48.77.51a25.87,25.87,0,0,0,5.7.21c2.12-.25,2.17-.21,2,1.86-.07,1.27-.16,1.38-1.41,1.36-2.22,0-4.43-.11-6.64-.19-1.24,0-1.76-.62-1.77-2,0-3.66,0-7.32,0-11.62.16-6.5-.19-13.63-.22-20.76,0-5.9-.21-11.81-.32-17.71A5,5,0,0,1,8.07,5.83a5.36,5.36,0,0,1,5.7.1,5.07,5.07,0,0,1,2.47,4.49c.07,6.74,0,13.47.05,20.21,0,.74-.38.91-1,.8a10.11,10.11,0,0,0-3.76,0c-.44.09-1.16,0-1.13.65s.68.52,1.12.59a11.33,11.33,0,0,0,3.49.07c.44-.08,1-.16,1.17.42a2.88,2.88,0,0,1-.13,2.23c-.17.26-.51.12-.78.11a19.8,19.8,0,0,0-4.42.1c-.39.08-1,0-1,.6S10.5,36.73,10.9,36.81Zm68.48,55.8a1,1,0,0,1-1.76.77c-1.29-1-2.55-2-3.82-3a2.29,2.29,0,0,0-3.33,0C68.75,91.62,67,93,65.34,94.34a1.44,1.44,0,0,1-2.12,0c-1.65-1.39-3.34-2.73-5-4.09a2.48,2.48,0,0,0-3.65-.08c-1.73,1.33-3.46,2.66-5.16,4a1.27,1.27,0,0,1-1.87-.07c-1.54-1.32-3.11-2.6-4.67-3.9s-2.74-1.42-4.45-.11-3.13,2.38-4.65,3.62a1.33,1.33,0,0,1-2,0c-1.62-1.42-3.31-2.75-5-4.1a2.79,2.79,0,0,0-3.72-.11c-1.22.88-2.4,1.83-3.6,2.74-.21.16-.39.47-.7.34s-.25-.52-.25-.81q0-6.65,0-13.29c0-4.06.23-8.13,0-12.18-.46-6.66-.28-13.33-.64-20,0-.28,0-.56,0-.83,0-9.81-.33-19.62-.18-29.43a48.58,48.58,0,0,0,0-6.27A6.68,6.68,0,0,0,15.76,5.7c-.18-.18-.52-.34-.39-.66s.44-.17.67-.17c8.73,0,17.47,0,26.2,0,4.37,0,8.73.21,13.09.33,6.15.18,12.29.36,18.44.58a4.47,4.47,0,0,1,4,2.42c.4.75.25,1-.6,1a5.11,5.11,0,0,0-3.5,1.18A5,5,0,0,1,70,11.51a7.06,7.06,0,0,0-1.38,0,3.72,3.72,0,0,0-3.32,2.14,8,8,0,0,1-4,4.31,3.84,3.84,0,0,0-2.07,4.27,5.88,5.88,0,0,1-1,4.37,4.31,4.31,0,0,0,0,5.47,6.14,6.14,0,0,1,1.23,4.42,4.05,4.05,0,0,0,2.81,4.54,5.24,5.24,0,0,1,2.9,2.82,5.18,5.18,0,0,0,2,2.5c.42.25.32.69.31,1.09q-.16,7.38.31,14.75a2.72,2.72,0,0,0,4.75,1.9c1-1,2.11-1.89,3.2-2.8.48-.4,1-1,1.7-.52s1.8.88,1.82,2.12c0,1.81.15,3.62.15,5.43q0,11.82,0,23.62A4.66,4.66,0,0,1,79.38,92.61ZM84,61.72c0,.55,0,1.14-.57,1.45s-1-.18-1.46-.51c-1.17-.94-2.29-2-3.48-2.88a2.59,2.59,0,0,0-3.54,0c-1.12.81-2.23,1.64-3.36,2.44-.33.23-.67.67-1.13.38s-.3-.78-.28-1.19c.13-3.19.28-6.38.42-9.57-.11-1.39,0-2.77-.18-4.15-.09-.63.22-.91.84-.91a3.57,3.57,0,0,1,1.83.55c.53.31,1,.64,1.56,1a4,4,0,0,0,4.36.07,12.7,12.7,0,0,1,2.45-1.28c1.45-.43,1.88-.1,2,1.38.34,4.17.59,8.34.55,12.52C84,61.22,84,61.47,84,61.72ZM93.67,31a6.8,6.8,0,0,0-1.34,5.22,3,3,0,0,1-2.07,3.46,5.71,5.71,0,0,0-3.19,3.41,3,3,0,0,1-3.39,2.18,6.55,6.55,0,0,0-4.9,1.44,3,3,0,0,1-4,.06,6.48,6.48,0,0,0-4.86-1.3,3.17,3.17,0,0,1-3.73-2.26,6.06,6.06,0,0,0-3.48-3.38,3,3,0,0,1-1.94-3.46,6.57,6.57,0,0,0-1.32-5,2.86,2.86,0,0,1,.08-3.81A6.63,6.63,0,0,0,61,22.44a2.72,2.72,0,0,1,1.8-3.08,6.83,6.83,0,0,0,4-3.76c.75-1.75,2.19-1.86,3.78-1.68a6.09,6.09,0,0,0,4.58-1.3,2.48,2.48,0,0,1,3.29,0A7.67,7.67,0,0,0,84,14.25a2.06,2.06,0,0,1,2.37,1.43,7.12,7.12,0,0,0,4,4.1A2.25,2.25,0,0,1,92,22.37a7.33,7.33,0,0,0,1.63,5.52A2.32,2.32,0,0,1,93.67,31Z"></path><path d="M37,70.87a5.91,5.91,0,0,1-3.33,6.3,1.57,1.57,0,0,0-1,1.47,1.56,1.56,0,0,1-1.51,1.45,1.52,1.52,0,0,1-1.54-1.43,1.7,1.7,0,0,0-1.15-1.57,5.62,5.62,0,0,1-3-4.47c-.15-1,.19-1.59.88-1.63.9-.06,1.11.58,1.22,1.31a3.61,3.61,0,0,0,5.72,2.49,3,3,0,0,0,1.31-2.6,3.43,3.43,0,0,0-3.52-3.67,6,6,0,0,1-5.35-3.35,5.59,5.59,0,0,1,.38-6,6.06,6.06,0,0,1,2.62-2.26,1.38,1.38,0,0,0,.91-1.16,1.51,1.51,0,0,1,1.61-1.35,1.37,1.37,0,0,1,1.47,1.36c.06.64.49.84,1,1.06a6.27,6.27,0,0,1,3.77,5.3,1.67,1.67,0,0,1-.79,1.74,1.44,1.44,0,0,1-1.57,0,1.73,1.73,0,0,1-.75-1.5,3.29,3.29,0,0,0-2.88-3,3.12,3.12,0,0,0-3.41,2.08,3.54,3.54,0,0,0,1.38,4,4.07,4.07,0,0,0,1.93.55A6,6,0,0,1,37,70.87Z"></path><path d="M61,46.85a1.45,1.45,0,0,1-1.64,1.38c-1.79,0-3.57,0-5.35,0H49.43V48H27.21c-1.31,0-2-.45-2-1.29s.66-1.28,2-1.29c9.31-.05,18.63-.26,27.94-.21.92,0,1.84-.08,2.76-.1a10.18,10.18,0,0,1,1.66,0A1.51,1.51,0,0,1,61,46.85Z"></path><path d="M54.68,18.42c0,1-.62,1.55-2,1.56-2.46,0-4.92-.09-7.38-.13-4.42-.09-8.85,0-13.28-.07-1.78,0-3.56-.09-5.34-.16-.94,0-1.54-.54-1.5-1.27,0-.89.66-1.18,1.43-1.26a6.12,6.12,0,0,1,.74,0c6.67,0,13.34,0,20-.19h5.35C54.08,16.86,54.68,17.37,54.68,18.42Z"></path><path d="M53.17,27.9a1.43,1.43,0,0,1-1.47,1.47c-1.5.05-3,0-4.51,0-6.45-.26-12.91-.11-19.36-.19a10.16,10.16,0,0,1-1.56-.14,1.12,1.12,0,0,1-1-1.31,1.09,1.09,0,0,1,1.13-1.1c.95-.06,1.9-.15,2.86-.16,2.05,0,4.11,0,6.17,0l15.21-.18a10.29,10.29,0,0,1,1.11,0A1.49,1.49,0,0,1,53.17,27.9Z"></path><path d="M72,75.08a1.43,1.43,0,0,1-1.57,1.55c-1.35,0-2.7,0-4,0-6.06-.28-12.12-.13-18.18-.2a12.67,12.67,0,0,1-1.37-.12A1.18,1.18,0,0,1,45.7,75a1.14,1.14,0,0,1,1.22-1.12c.86,0,1.72-.14,2.58-.16,1.94,0,3.88,0,5.81,0l14-.18c.37,0,.74,0,1.11,0C71.48,73.61,72,74.14,72,75.08Z"></path><path d="M64.22,65.66a1.64,1.64,0,0,1-1.64,1.55,21.34,21.34,0,0,1-2.77,0c-2.76-.23-5.53-.09-8.29-.15-1.5,0-3-.12-4.51-.19a1.18,1.18,0,0,1-1.29-1.16,1.2,1.2,0,0,1,1.14-1.32,4.58,4.58,0,0,1,.83-.08c3.87,0,7.74-.06,11.61-.19,1.07,0,2.15,0,3.22,0A1.55,1.55,0,0,1,64.22,65.66Z"></path><path d="M64.21,56.13a1.59,1.59,0,0,1-1.54,1.63,19.35,19.35,0,0,1-2.85-.1c-4,0-8-.06-12.07-.2-.3,0-.61,0-.92,0A1.24,1.24,0,0,1,46.69,55a2.56,2.56,0,0,1,.73-.09h11v-.19c1.38,0,2.76,0,4.15,0C63.6,54.71,64.18,55.24,64.21,56.13Z"></path><path d="M38.59,37.29c0,.83-.5,1.31-1.55,1.31-2.7,0-5.4.14-8.1.21-.83,0-1.66,0-2.49,0a1.52,1.52,0,0,1-1.57-1.48,1.54,1.54,0,0,1,1.47-1.6,27.69,27.69,0,0,1,3.4.13c2.43,0,4.85,0,7.27.19C38.13,36.12,38.6,36.46,38.59,37.29Z"></path><path d="M54.37,37.25a1.09,1.09,0,0,1-.71,1.17,2.49,2.49,0,0,1-.89.19c-2.3,0-4.59.15-6.89.19-.74,0-1.47,0-2.21,0a1.49,1.49,0,0,1-1.49-1.45,1.57,1.57,0,0,1,1.28-1.58,3.35,3.35,0,0,1,1-.07c2.81.28,5.64,0,8.45.35a2.59,2.59,0,0,1,.63.09A1.18,1.18,0,0,1,54.37,37.25Z"></path><path d="M78.26,17.05c-7.32-.36-12.92,4.58-13.2,11.9A11.84,11.84,0,0,0,76.79,41.14,12,12,0,0,0,89.26,29.06C89.54,23.18,84.18,17.34,78.26,17.05Zm-2,22.68a9.83,9.83,0,0,1-9.62-10.06,9.63,9.63,0,0,1,9.74-9.86,10,10,0,1,1-.12,19.92Z"></path></svg>