<svg xmlns="http://www.w3.org/2000/svg" fill="white" viewBox="0 0 100 100"><path d="M92.89,88.3H64.59A44.19,44.19,0,0,0,93.08,37L93,36.72a44.12,44.12,0,0,0-5.45-13.28,1.24,1.24,0,1,0-2.12,1.3A41.44,41.44,0,0,1,90.28,36a17.64,17.64,0,0,0-4.86,1.24,16.41,16.41,0,0,1-6.84,1.25,16.63,16.63,0,0,1-6.69-1.23,18.86,18.86,0,0,0-7.54-1.39,18.86,18.86,0,0,0-7.54,1.39,16.67,16.67,0,0,1-6.69,1.23,16.61,16.61,0,0,1-6.68-1.23,19,19,0,0,0-7.55-1.39,19.45,19.45,0,0,0-7.66,1.4,16.51,16.51,0,0,1-6.56,1.22A16.58,16.58,0,0,1,15,37.27,18.68,18.68,0,0,0,9.65,36a41.54,41.54,0,0,1,4.82-11.24,1.24,1.24,0,0,0-2.12-1.3A44,44,0,0,0,6.89,36.8a.57.57,0,0,0,0,.14A44.19,44.19,0,0,0,35.33,88.3H7a1.25,1.25,0,0,0,0,2.49H92.89a1.25,1.25,0,0,0,0-2.49ZM8.27,46.62a42.2,42.2,0,0,1,.81-8.19,16.32,16.32,0,0,1,5.05,1.18A18.89,18.89,0,0,0,21.67,41a19,19,0,0,0,7.41-1.37,17.19,17.19,0,0,1,6.81-1.25,16.67,16.67,0,0,1,6.69,1.23A18.86,18.86,0,0,0,50.12,41a18.92,18.92,0,0,0,7.55-1.39,16.58,16.58,0,0,1,6.68-1.23A16.58,16.58,0,0,1,71,39.6,18.88,18.88,0,0,0,78.58,41a18.75,18.75,0,0,0,7.72-1.41,15.31,15.31,0,0,1,4.54-1.12A41.69,41.69,0,1,1,8.27,46.62Z"></path><path d="M68.64,61a3.17,3.17,0,0,0-3.42-.51L64,61.09a1.25,1.25,0,1,0,1,2.27l1.24-.56a.67.67,0,0,1,.74.11.7.7,0,0,1,.21.73L66.46,66a8.83,8.83,0,0,0-.33,3.72l.19,1.54A.66.66,0,0,1,66,72a.65.65,0,0,1-.75,0l-3.91-2.8A1.2,1.2,0,0,0,60.2,69L60,66.64a1.27,1.27,0,0,1,.12-.66l.77-1.59a8.2,8.2,0,0,0-.17-7.5l-.18-.32a2.59,2.59,0,0,1-.07-2.33,2.42,2.42,0,0,1,1.71-1.39l-.22-1.23.35,1.2c.85-.14,2.57-.58,5.25-1.35a2.27,2.27,0,0,0,.07-4.33A25.84,25.84,0,0,0,60.4,46l-5,.18A20.22,20.22,0,0,0,47.5,48l-3.73,1.74a17.35,17.35,0,0,0-7,5.88l-.65.94a1.51,1.51,0,0,1-.73.57l-3.14,1.14a4,4,0,0,0-2.62,3.34v.09a4,4,0,0,0,2.55,4.12l.61.23a14,14,0,0,1,4.38,2.7l1,.86a24.31,24.31,0,0,0,3.32,2.51L44.38,74a24.9,24.9,0,0,0,2.26,1.25v0l-.06.24c-.08.31-.22.83.33,4.94l1.24-.17-1.35.25a7.84,7.84,0,0,1-4.2-5.43,1.24,1.24,0,1,0-2.43.51,10.26,10.26,0,0,0,5.53,7.15,2.51,2.51,0,0,0,.86.26h.27a2.61,2.61,0,0,0,1.85-.78,2.55,2.55,0,0,0,.7-2.14,35,35,0,0,1-.4-3.89,22,22,0,0,0,2.55.76l4.83,1.15.09,0a3.25,3.25,0,0,0,.69.08,2.78,2.78,0,0,0,2.68-2,2.08,2.08,0,0,0-.06-1.44l-.26-.61a1.24,1.24,0,0,1,.14-1.22,3.88,3.88,0,0,0,.66-1.5l3.48,2.5a3.2,3.2,0,0,0,1.85.61A3.22,3.22,0,0,0,68.79,71l-.19-1.53a6.39,6.39,0,0,1,.24-2.68l.73-2.38A3.15,3.15,0,0,0,68.64,61ZM58.18,53.19a5,5,0,0,0,.15,4.57l.17.32a5.69,5.69,0,0,1,.12,5.22l-.77,1.59a3.76,3.76,0,0,0-.36,2l.37,3.72a1.18,1.18,0,0,1-.24.85,3.74,3.74,0,0,0-.42,3.68l.19.44a.32.32,0,0,1-.31.13h0L52.1,74.53a21.34,21.34,0,0,1-6.4-2.67l-2.9-1.81a20.89,20.89,0,0,1-3-2.25l-1-.86a16.34,16.34,0,0,0-5.16-3.17l-.61-.24a1.52,1.52,0,0,1-1-1.58v-.07a1.54,1.54,0,0,1,1-1.23l3.14-1.14A4.06,4.06,0,0,0,38.2,58l.65-1a14.86,14.86,0,0,1,6-5l3.73-1.74a17.72,17.72,0,0,1,6.94-1.66l5-.18a23.53,23.53,0,0,1,5.59.83c-2.12.6-3.53,1-4.18,1.07l-.25,0A4.9,4.9,0,0,0,58.18,53.19Z"></path><path d="M25.73,52.81a5.19,5.19,0,1,0-3.67,8.86,5.34,5.34,0,0,0,2-.39,5.24,5.24,0,0,0,1.68-1.13,5.19,5.19,0,0,0,0-7.34Zm-1.17,4.71a2.72,2.72,0,0,1-4.41.87,2.7,2.7,0,1,1,4.61-1.91A2.83,2.83,0,0,1,24.56,57.52Z"></path><path d="M35.25,44.48A5,5,0,1,0,28.76,51a4.94,4.94,0,0,0,3.8,0A5,5,0,0,0,35.25,44.48Zm-3.64,4.19a2.48,2.48,0,0,1-3.24-1.34,2.47,2.47,0,0,1,1.34-3.23,2.44,2.44,0,0,1,.95-.19,2.47,2.47,0,0,1,.95,4.76Z"></path><path d="M88,8.79H11.93a4.26,4.26,0,0,0-4.26,4.26v4.17a4.26,4.26,0,0,0,4.26,4.26H88a4.26,4.26,0,0,0,4.26-4.26V13.05A4.26,4.26,0,0,0,88,8.79Zm1.77,8.43A1.77,1.77,0,0,1,88,19H11.93a1.77,1.77,0,0,1-1.77-1.77V13.05a1.78,1.78,0,0,1,1.77-1.77H88a1.77,1.77,0,0,1,1.77,1.77Z"></path></svg>