<svg xmlns="http://www.w3.org/2000/svg" fill="white" viewBox="0 0 100 100"><path d="M92.39,6.86A1.23,1.23,0,0,1,91.15,8.1H71V39.2a4.35,4.35,0,0,1,3.23,4.2,1.25,1.25,0,0,1-2.49,0,1.86,1.86,0,0,0-3.72,0,1.25,1.25,0,0,1-2.49,0,4.36,4.36,0,0,1,3-4.13V8.1h-18V61.68a4.36,4.36,0,0,1,3.14,4.18,1.25,1.25,0,0,1-2.49,0,1.87,1.87,0,1,0-3.73,0,1.24,1.24,0,1,1-2.48,0,4.34,4.34,0,0,1,3.07-4.16V8.1H26.87v18A4.36,4.36,0,0,1,30,30.29a1.25,1.25,0,0,1-2.49,0,1.87,1.87,0,0,0-1.86-1.87h0a1.87,1.87,0,0,0-1.85,1.87,1.25,1.25,0,0,1-2.49,0,4.36,4.36,0,0,1,3.1-4.17V8.1H8.77a1.25,1.25,0,1,1,0-2.49H91.15A1.24,1.24,0,0,1,92.39,6.86Z"></path><path d="M40.21,49.45,38.29,39.9a9.7,9.7,0,0,0-9.49-7.78H22.42a9.71,9.71,0,0,0-9.5,7.78L11,49.45a2.21,2.21,0,0,0,.45,1.8,2.18,2.18,0,0,0,1.68.79h6.21c.46,3.59,3.22,6.35,6.55,6.35S32,55.63,32.46,52h5.62a2.16,2.16,0,0,0,2.13-2.59ZM25.9,55.9a4.36,4.36,0,0,1-4-3.86h8.07A4.37,4.37,0,0,1,25.9,55.9ZM13.53,49.55l1.83-9.16a7.22,7.22,0,0,1,7.06-5.78H28.8a7.2,7.2,0,0,1,7.05,5.78l1.84,9.16Z"></path><path d="M84.46,62.56,82.55,53a9.71,9.71,0,0,0-9.49-7.79H66.67A9.71,9.71,0,0,0,57.18,53l-1.91,9.56a2.16,2.16,0,0,0,2.12,2.58h6.22c.45,3.59,3.22,6.36,6.55,6.36s6.09-2.77,6.55-6.36h5.63A2.19,2.19,0,0,0,84,64.36,2.15,2.15,0,0,0,84.46,62.56ZM70.16,69a4.39,4.39,0,0,1-4-3.87H74.2A4.39,4.39,0,0,1,70.16,69ZM57.79,62.66l1.83-9.16a7.21,7.21,0,0,1,7.05-5.78h6.39a7.22,7.22,0,0,1,7.06,5.78l1.82,9.16Z"></path><path d="M63.9,85,62,75.47a9.71,9.71,0,0,0-9.49-7.78H46.11a9.7,9.7,0,0,0-9.49,7.78L34.71,85a2.16,2.16,0,0,0,2.12,2.59H43C43.5,91.2,46.26,94,49.59,94s6.1-2.76,6.56-6.35h5.63a2.17,2.17,0,0,0,1.67-.79A2.2,2.2,0,0,0,63.9,85ZM49.59,91.48a4.37,4.37,0,0,1-4-3.87h8.07A4.38,4.38,0,0,1,49.59,91.48ZM37.22,85.12,39.06,76a7.2,7.2,0,0,1,7-5.78H52.5a7.21,7.21,0,0,1,7,5.78l1.83,9.16Z"></path></svg>