<svg xmlns="http://www.w3.org/2000/svg" fill="white" viewBox="0 0 100 100"><path d="M50.87,6A5.67,5.67,0,1,0,50,17.27,5.67,5.67,0,0,0,50.87,6Zm2.22,6.11A3.18,3.18,0,1,1,50,8.43a2.92,2.92,0,0,1,.51,0,3.13,3.13,0,0,1,2.62,3.65Z"></path><path d="M81.45,80.79V35.06a5.74,5.74,0,0,0-1-11.33L58.36,13.51a1.26,1.26,0,0,0-1.65.61,1.24,1.24,0,0,0,.61,1.65l17.23,8H25.37l17.23-8a1.24,1.24,0,1,0-1-2.26L19.42,23.73a5.74,5.74,0,0,0-1,11.34V80.79a5,5,0,0,0-3.7,4.79c0,2.35,3.3,6.72,4,7.58a1.25,1.25,0,0,0,2,0c.66-.86,4-5.23,4-7.58A5,5,0,0,0,21,80.79V61.32l14.52,9.17v7.27a5,5,0,0,0-3.7,4.79c0,2.35,3.3,6.72,4,7.57a1.24,1.24,0,0,0,2,0c.66-.85,4-5.22,4-7.57A5,5,0,0,0,38,77.76v-5.7l11.33,7.17a1.26,1.26,0,0,0,.67.19,1.21,1.21,0,0,0,.66-.19L62.1,72v5.78a5,5,0,0,0-3.7,4.79c0,2.35,3.3,6.72,4,7.57a1.24,1.24,0,0,0,2,0c.66-.85,4-5.22,4-7.57a5,5,0,0,0-3.71-4.79V70.41L79,61.32V80.79a5,5,0,0,0-3.7,4.79c0,2.35,3.31,6.72,4,7.58a1.23,1.23,0,0,0,1,.48,1.25,1.25,0,0,0,1-.48c.66-.86,4-5.23,4-7.58A5,5,0,0,0,81.45,80.79ZM22.17,85.58c0,.8-1.15,2.84-2.46,4.71-1.31-1.87-2.46-3.91-2.46-4.71a2.46,2.46,0,0,1,4.92,0ZM19.75,32.71h-.08a3.25,3.25,0,0,1,0-6.5h60.5a3.25,3.25,0,0,1,0,6.5H19.75ZM50,35.55l11.24,9L50,51.61l-11.12-7ZM36.62,43.18l-7.41-4.69-.08-.05L24,35.2H46.45Zm16.9-8H75.91L63.42,43.1ZM39.17,82.55c0,.8-1.15,2.84-2.46,4.71-1.31-1.87-2.46-3.91-2.46-4.71a2.46,2.46,0,0,1,4.92,0Zm26.63,0c0,.8-1.15,2.84-2.46,4.71-1.31-1.87-2.46-3.91-2.46-4.71a2.46,2.46,0,0,1,4.92,0ZM64.58,67.46V56.12a1.24,1.24,0,1,0-2.48,0V69L50,76.71,38,69.12v-13a1.25,1.25,0,1,0-2.49,0V67.55L21,58.37V36.21l6.32,4V53.08a1.25,1.25,0,0,0,2.49,0V41.78L36,45.73l.06,0,12.64,8V66.87a1.25,1.25,0,0,0,2.49,0V53.76L64,45.68l6.3-4V53.08a1.25,1.25,0,0,0,2.49,0v-13L79,36.21V58.37ZM80.21,90.29c-1.31-1.87-2.46-3.91-2.46-4.71a2.46,2.46,0,0,1,4.92,0C82.67,86.38,81.52,88.42,80.21,90.29Z"></path></svg>