<svg xmlns="http://www.w3.org/2000/svg" fill="white" viewBox="0 0 100 100"><path d="M95.59,41.48H58.41l.71-.88A17.67,17.67,0,0,0,63,29.53V26.74a1.64,1.64,0,0,0-1.65-1.64H37.59A1.63,1.63,0,0,0,36,26.74v2.79a17.66,17.66,0,0,0,3.9,11.07l.71.88H6.42a2.93,2.93,0,0,0-2.93,2.93v9.86A2.94,2.94,0,0,0,6.42,57.2H95.59a2.93,2.93,0,0,0,2.93-2.93V44.41A2.93,2.93,0,0,0,95.59,41.48ZM38.43,29.53V27.59H60.54v1.94A15.18,15.18,0,0,1,57.18,39L56,40.49a3.14,3.14,0,0,1-.68.63,1.33,1.33,0,0,0-.35.36H44a1.23,1.23,0,0,0-.36-.36,3.16,3.16,0,0,1-.68-.64L41.79,39A15.13,15.13,0,0,1,38.43,29.53ZM96,54.27a.44.44,0,0,1-.44.44H6.42A.44.44,0,0,1,6,54.27V44.41A.44.44,0,0,1,6.42,44H95.59a.44.44,0,0,1,.44.44Z"></path><path d="M21.86,61.12,8.52,93.2A1.24,1.24,0,0,1,7.37,94H2.16a1.28,1.28,0,0,1-1-.48A1.28,1.28,0,0,1,1,92.39l8.7-32.08a1.24,1.24,0,0,1,2.4.66L3.79,91.47H6.54l13-31.31a1.25,1.25,0,1,1,2.3,1Z"></path><path d="M98.74,93.48a1.25,1.25,0,0,1-1,.48H92.54a1.26,1.26,0,0,1-1.15-.76L78.06,61.12a1.25,1.25,0,1,1,2.3-1l13,31.31h2.76L87.86,61a1.24,1.24,0,1,1,2.4-.66L99,92.39A1.25,1.25,0,0,1,98.74,93.48Z"></path><path d="M79.67,67.87a1.25,1.25,0,0,1-1.24,1.24H21.49a1.25,1.25,0,0,1,0-2.49H78.43A1.25,1.25,0,0,1,79.67,67.87Z"></path><path d="M72.13,31.11a8.14,8.14,0,0,1-5.48,7.7l-4.1,1.48a1.2,1.2,0,0,1-.42.07A1.24,1.24,0,0,1,61.71,38l4.11-1.49a5.66,5.66,0,0,0,3.82-5.35,2.05,2.05,0,0,0-.74-1.58,2.1,2.1,0,0,0-1.71-.43l-1.41.28a1.24,1.24,0,0,1-.48-2.44l1.41-.28a4.53,4.53,0,0,1,5.42,4.45Z"></path><path d="M42,14.68a3.77,3.77,0,0,1,0,4.62,1.26,1.26,0,0,0-.33.88,1.25,1.25,0,0,1-2.49,0,3.66,3.66,0,0,1,.79-2.32,1.25,1.25,0,0,0,.33-.87,1.29,1.29,0,0,0-.33-.88,3.79,3.79,0,0,1,0-4.63,1.26,1.26,0,0,0,.33-.88,1.25,1.25,0,0,1,2.49,0A3.66,3.66,0,0,1,42,12.92a1.26,1.26,0,0,0-.33.88A1.29,1.29,0,0,0,42,14.68Z"></path><path d="M50.3,10.93a3.77,3.77,0,0,1,0,4.62,1.29,1.29,0,0,0-.33.88,1.25,1.25,0,0,1-2.49,0,3.63,3.63,0,0,1,.79-2.31,1.34,1.34,0,0,0,0-1.76,3.63,3.63,0,0,1-.79-2.31,3.63,3.63,0,0,1,.79-2.31,1.29,1.29,0,0,0,.33-.88,1.25,1.25,0,1,1,2.49,0,3.65,3.65,0,0,1-.79,2.31,1.34,1.34,0,0,0,0,1.76Z"></path><path d="M58.64,14.68a3.77,3.77,0,0,1,0,4.62,1.21,1.21,0,0,0-.33.88,1.25,1.25,0,0,1-2.49,0,3.66,3.66,0,0,1,.79-2.32,1.25,1.25,0,0,0,.33-.87,1.29,1.29,0,0,0-.33-.88,3.79,3.79,0,0,1,0-4.63,1.26,1.26,0,0,0,.33-.88,1.25,1.25,0,0,1,2.49,0,3.72,3.72,0,0,1-.79,2.32,1.21,1.21,0,0,0-.33.88A1.24,1.24,0,0,0,58.64,14.68Z"></path></svg>