<svg xmlns="http://www.w3.org/2000/svg" fill="white" viewBox="0 0 100 100"><path d="M88.7,29s0-.07,0-.11a0,0,0,0,0,0,0,.13.13,0,0,0,0-.06.14.14,0,0,0,0-.06l0-.1a.54.54,0,0,1-.05-.11l0-.08a.1.1,0,0,0,0,0,.18.18,0,0,0,0-.07h0l-.07-.09h0l-.08-.08-.06,0,0,0-.07,0,0,0L88,28h0l-.08,0-.15,0H87.7l-.12,0a23.83,23.83,0,0,0-19.45,7.15c-4.91,4.91-7.8,10.82-7.81,15.77H56.49a30.08,30.08,0,0,0,5.1-12.61,42.82,42.82,0,0,0,.65-7.48c0-11.8-6-20.59-11.52-24.87a1.25,1.25,0,0,0-1.53,0A31.5,31.5,0,0,0,37.68,30.74a42.94,42.94,0,0,0,.65,7.49,30,30,0,0,0,5.1,12.6H39.6c0-4.95-2.91-10.86-7.82-15.77a23.81,23.81,0,0,0-19.44-7.15l-.12,0h-.07L12,28l-.09,0-.07,0-.05,0,0,0-.05,0,0,0-.08.07h0a.12.12,0,0,0-.05.05l0,0-.06.08-.06.08-.05.09a1.46,1.46,0,0,0-.07.19.14.14,0,0,0,0,.06.13.13,0,0,0,0,.06,0,0,0,0,0,0,0,.41.41,0,0,0,0,.11,24,24,0,0,0,7.13,19.45,31,31,0,0,0,2.5,2.25,1.24,1.24,0,1,0,1.56-1.93c-.78-.64-1.56-1.34-2.3-2.08A21.92,21.92,0,0,1,13.56,32l18.8,18.81h-6a3.5,3.5,0,0,0-3.49,3.49v3.29A3.5,3.5,0,0,0,25.32,61L32,90.27A5.14,5.14,0,0,0,37.19,94H62.9a5.16,5.16,0,0,0,5.18-3.69L74.77,61a3.5,3.5,0,0,0,2.48-3.34V54.32a3.5,3.5,0,0,0-3.49-3.49H67.55L86.36,32a21.94,21.94,0,0,1-6.56,14.7c-.47.48-1,.93-1.45,1.37A1.24,1.24,0,0,0,80,50q.8-.71,1.56-1.47A23.93,23.93,0,0,0,88.7,29ZM40.78,37.78a39.73,39.73,0,0,1-.61-7A29.11,29.11,0,0,1,50,8.47a29.3,29.3,0,0,1,9.78,22.27,40.7,40.7,0,0,1-.61,7c-1,5.43-3.12,10.15-5.9,13h-2V36.26a1.24,1.24,0,0,0-2.48,0V50.83h-2C43.9,47.93,41.76,43.21,40.78,37.78Zm-25.43-7.5A21.52,21.52,0,0,1,30,36.82c4.39,4.39,7.08,9.76,7.09,14H35.88Zm50.3,59.44a2.72,2.72,0,0,1-2.75,1.76H37.19a2.72,2.72,0,0,1-2.75-1.76L27.91,61.1H72.19Zm8.11-36.4a1,1,0,0,1,1,1v3.29a1,1,0,0,1-1,1H26.28a1,1,0,0,1-1-1V54.32a1,1,0,0,1,1-1ZM64,50.83H62.81c0-4.25,2.69-9.62,7.09-14a21.56,21.56,0,0,1,14.67-6.54Z"></path><path d="M75.83,27.11a1.25,1.25,0,0,1-1.24,1.16H74.5a1.23,1.23,0,0,1-1.15-1.32,24.23,24.23,0,0,0-.67-7.75L69,25.61a1.24,1.24,0,0,1-1.08.62,1.16,1.16,0,0,1-.62-.17,1.24,1.24,0,0,1-.46-1.7L70.52,18a24.65,24.65,0,0,0-6.38,2.83,1.25,1.25,0,0,1-1.32-2.12,26,26,0,0,1,10-3.73,1.31,1.31,0,0,1,.28,0h.07l.09,0,.09,0,.17.07a.2.2,0,0,1,.08,0h0l.13.1a.81.81,0,0,1,.14.12l.09.1h0a.83.83,0,0,1,.08.12.2.2,0,0,1,0,.08.36.36,0,0,1,0,.09v0A25.46,25.46,0,0,1,75.83,27.11Z"></path><path d="M37.37,20.29a1.24,1.24,0,0,1-1.71.41A24.82,24.82,0,0,0,29.4,18l3.43,5.94a1.25,1.25,0,0,1-.45,1.7,1.31,1.31,0,0,1-.63.16,1.25,1.25,0,0,1-1.08-.62l-3.43-5.94a25.12,25.12,0,0,0-.67,7.75,1.25,1.25,0,0,1-1.15,1.33h-.09a1.24,1.24,0,0,1-1.24-1.16,25.62,25.62,0,0,1,1.68-11.42s0,0,0,0a1.16,1.16,0,0,1,.14-.24l.05-.06h0l.06-.06a.46.46,0,0,1,.07-.07l.12-.09.07-.05.18-.08.08,0,.08,0a1.19,1.19,0,0,1,.46,0A25.83,25.83,0,0,1,37,18.58,1.25,1.25,0,0,1,37.37,20.29Z"></path></svg>