<svg xmlns="http://www.w3.org/2000/svg" fill="white" viewBox="0 0 100 100"><path d="M71.46,87.49v9.22a1.25,1.25,0,1,1-2.49,0V87.49a1.25,1.25,0,0,1,2.49,0Z"></path><path d="M33.81,87.49v9.22a1.24,1.24,0,1,1-2.48,0V87.49a1.24,1.24,0,0,1,2.48,0Z"></path><path d="M80.31,62.65l-1.92-3.53a12.72,12.72,0,0,0-10.21-6.61l-5-.39a4.6,4.6,0,0,1-4.12-3.66l-.77-3.88a1.07,1.07,0,0,0-.09-.27A16.92,16.92,0,0,0,60,42.8a16.33,16.33,0,0,0,4.89-11.59V21.49a1.9,1.9,0,0,0-2.15-1.87h-.05c-3.62.61-5.21-4.57-5.22-4.62a1.27,1.27,0,0,0-.8-.83,1.25,1.25,0,0,0-1.14.18,6.18,6.18,0,0,1-5,1.13,3.07,3.07,0,0,1-2.16-1.7,1.24,1.24,0,0,0-2.12-.22,5.3,5.3,0,0,1-7.08,1,1.24,1.24,0,0,0-1.93.62,11.53,11.53,0,0,0-.31,1.4A3,3,0,0,1,35,19l-.15,0a1.91,1.91,0,0,0-1.43,1.84v10.7A15.65,15.65,0,0,0,38,42.68a16.07,16.07,0,0,0,3.45,2.61l-.64,3.17a4.59,4.59,0,0,1-4.11,3.66l-5,.39a12.72,12.72,0,0,0-10.2,6.61l-1.92,3.53a1.19,1.19,0,0,0-.1,1,1.27,1.27,0,0,0,.63.75l4,2a9.12,9.12,0,0,1,5,7.16l.13,1.19H26.8a3.7,3.7,0,0,0-3.7,3.7v3.27a3.7,3.7,0,0,0,3.7,3.7H76a3.7,3.7,0,0,0,3.7-3.7V78.38a3.7,3.7,0,0,0-3.7-3.7H70.7l.13-1.19a9.12,9.12,0,0,1,5-7.16l4-2a1.27,1.27,0,0,0,.63-.75A1.24,1.24,0,0,0,80.31,62.65ZM39.75,40.92a13.18,13.18,0,0,1-3.89-9.39V21.27a5.5,5.5,0,0,0,3.49-3.82,8,8,0,0,0,7.79-1.19A5.76,5.76,0,0,0,50,17.91a8.43,8.43,0,0,0,5.69-.72c1.1,2.36,3.33,5.19,6.76,5v9A13.83,13.83,0,0,1,58.29,41a13,13,0,0,1-9.43,3.79A13.2,13.2,0,0,1,39.75,40.92ZM76,77.17a1.21,1.21,0,0,1,1.21,1.21v3.27A1.21,1.21,0,0,1,76,82.86H26.8a1.21,1.21,0,0,1-1.21-1.21V78.38a1.21,1.21,0,0,1,1.21-1.21ZM74.71,64.11a11.56,11.56,0,0,0-6.35,9.1l-.17,1.47H31.73l-.17-1.47a11.56,11.56,0,0,0-6.35-9.1l-2.8-1.41,1.3-2.39A10.23,10.23,0,0,1,31.93,55l5-.39A7.08,7.08,0,0,0,43.24,49l.52-2.59a15.63,15.63,0,0,0,5.05.93h.33A15.28,15.28,0,0,0,56,45.67L56.67,49A7.1,7.1,0,0,0,63,54.6l1.54.12A42.52,42.52,0,0,1,36.53,69a1.24,1.24,0,0,0,.11,2.48h.11A45,45,0,0,0,67.63,55L68,55a10.22,10.22,0,0,1,8.21,5.32l1.31,2.39Z"></path><path d="M71.87,18.5a6.05,6.05,0,0,1-3.1,5.32,1.2,1.2,0,0,1-.6.16,1.25,1.25,0,0,1-.6-2.34,3.56,3.56,0,0,0,1.81-3.14,3.52,3.52,0,0,0-2.29-3.35,1.24,1.24,0,0,1-.8-1.48,4.93,4.93,0,0,0,.16-1.25,4.72,4.72,0,0,0-4.6-4.83,4.42,4.42,0,0,0-2.73.95,1.26,1.26,0,0,1-1.86-.39C56.05,6,53.74,5.22,52,6.52a1.24,1.24,0,0,1-1.73-.25A5.31,5.31,0,0,0,46,4.11a5.5,5.5,0,0,0-5.24,4.2,1.24,1.24,0,0,1-2.07.57,4.48,4.48,0,0,0-3.13-1.29,4.72,4.72,0,0,0-4.6,4.83,5,5,0,0,0,1.12,3.16A1.23,1.23,0,0,1,32,17.25,3.68,3.68,0,0,0,31.64,22a1.24,1.24,0,0,1-2,1.48,6.11,6.11,0,0,1-1.19-3.65,6,6,0,0,1,1.09-3.49,7.46,7.46,0,0,1-1.09-3.89A7.21,7.21,0,0,1,35.54,5.1,6.82,6.82,0,0,1,39,6a7.9,7.9,0,0,1,7-4.39,7.74,7.74,0,0,1,5.5,2.3,5.62,5.62,0,0,1,2.44-.56,6.11,6.11,0,0,1,4.79,2.49,7,7,0,0,1,3.14-.75,7.21,7.21,0,0,1,7.09,7.32,5.92,5.92,0,0,1,0,.84A6,6,0,0,1,71.87,18.5Z"></path><path d="M61.35,69.75a31.13,31.13,0,0,1-4.75,3,1.17,1.17,0,0,1-.57.14,1.25,1.25,0,0,1-.58-2.35,28.3,28.3,0,0,0,4.38-2.79,1.24,1.24,0,1,1,1.52,2Z"></path></svg>